<svg xmlns="http://www.w3.org/2000/svg" xmlns:xlink="http://www.w3.org/1999/xlink" width="500" zoomAndPan="magnify" viewBox="0 0 375 374.999991" height="500" preserveAspectRatio="xMidYMid meet" version="1.0"><defs><clipPath id="88522da2fc"><path d="M 20.414062 26 L 326 26 L 326 220 L 20.414062 220 Z M 20.414062 26 " clip-rule="nonzero"/></clipPath><clipPath id="8d38455378"><path d="M 20.414062 206 L 326 206 L 326 273 L 20.414062 273 Z M 20.414062 206 " clip-rule="nonzero"/></clipPath><clipPath id="8a0765327a"><path d="M 92 309 L 254 309 L 254 369.890625 L 92 369.890625 Z M 92 309 " clip-rule="nonzero"/></clipPath><clipPath id="1cc01fe956"><path d="M 234 5.390625 L 354.914062 5.390625 L 354.914062 126 L 234 126 Z M 234 5.390625 " clip-rule="nonzero"/></clipPath></defs><g clip-path="url(#88522da2fc)"><path fill="#000000" d="M 319.328125 219.417969 L 26.9375 219.417969 C 23.417969 219.417969 20.488281 216.570312 20.488281 212.96875 L 20.488281 45.667969 C 20.488281 35.285156 28.945312 26.910156 39.25 26.910156 L 307.015625 26.910156 C 309.613281 26.910156 312.125 27.414062 314.46875 28.417969 C 317.738281 29.839844 319.246094 33.609375 317.820312 36.875 C 316.398438 40.140625 312.628906 41.648438 309.363281 40.222656 C 308.609375 39.890625 307.855469 39.722656 307.015625 39.722656 L 39.332031 39.722656 C 36.066406 39.722656 33.386719 42.402344 33.386719 45.667969 L 33.386719 206.523438 L 312.878906 206.523438 L 312.878906 55.632812 C 312.878906 52.113281 315.726562 49.183594 319.328125 49.183594 C 322.929688 49.183594 325.777344 52.03125 325.777344 55.632812 L 325.777344 212.96875 C 325.777344 216.488281 322.929688 219.417969 319.328125 219.417969 Z M 319.328125 219.417969 " fill-opacity="1" fill-rule="nonzero"/></g><g clip-path="url(#8d38455378)"><path fill="#000000" d="M 307.015625 272.839844 L 39.332031 272.839844 C 28.945312 272.839844 20.570312 264.382812 20.570312 254.085938 L 20.570312 212.96875 C 20.570312 209.453125 23.417969 206.523438 27.019531 206.523438 L 319.414062 206.523438 C 322.929688 206.523438 325.863281 209.371094 325.863281 212.96875 L 325.863281 254.085938 C 325.777344 264.46875 317.316406 272.839844 307.015625 272.839844 Z M 33.386719 219.417969 L 33.386719 254.085938 C 33.386719 257.351562 36.066406 260.03125 39.332031 260.03125 L 307.015625 260.03125 C 310.28125 260.03125 312.964844 257.351562 312.964844 254.085938 L 312.964844 219.417969 Z M 33.386719 219.417969 " fill-opacity="1" fill-rule="nonzero"/></g><path fill="#000000" d="M 203.828125 302.652344 L 142.4375 302.652344 C 138.917969 302.652344 135.988281 299.804688 135.988281 296.203125 L 135.988281 266.476562 C 135.988281 262.960938 138.835938 260.03125 142.4375 260.03125 L 203.828125 260.03125 C 207.347656 260.03125 210.277344 262.875 210.277344 266.476562 L 210.277344 296.203125 C 210.277344 299.71875 207.429688 302.652344 203.828125 302.652344 Z M 148.886719 289.753906 L 197.464844 289.753906 L 197.464844 272.839844 L 148.886719 272.839844 Z M 148.886719 289.753906 " fill-opacity="1" fill-rule="nonzero"/><path fill="#000000" d="M 192.4375 346.027344 L 153.828125 346.027344 C 150.308594 346.027344 147.378906 343.179688 147.378906 339.578125 L 147.378906 296.203125 C 147.378906 292.6875 150.226562 289.753906 153.828125 289.753906 L 192.4375 289.753906 C 195.957031 289.753906 198.886719 292.601562 198.886719 296.203125 L 198.886719 339.578125 C 198.886719 343.179688 195.957031 346.027344 192.4375 346.027344 Z M 160.277344 333.128906 L 185.988281 333.128906 L 185.988281 302.566406 L 160.277344 302.566406 Z M 160.277344 333.128906 " fill-opacity="1" fill-rule="nonzero"/><g clip-path="url(#8a0765327a)"><path fill="#000000" d="M 247.296875 369.890625 L 98.96875 369.890625 C 96.957031 369.890625 95.03125 368.886719 93.773438 367.292969 C 92.519531 365.703125 92.183594 363.527344 92.769531 361.601562 L 107.425781 313.871094 C 108.265625 311.191406 110.777344 309.347656 113.539062 309.347656 L 153.828125 309.347656 C 157.34375 309.347656 160.277344 312.195312 160.277344 315.796875 L 160.277344 333.214844 L 185.988281 333.214844 L 185.988281 315.796875 C 185.988281 312.28125 188.835938 309.347656 192.4375 309.347656 L 232.726562 309.347656 C 235.574219 309.347656 238.085938 311.191406 238.839844 313.871094 L 253.496094 361.601562 C 254.082031 363.527344 253.746094 365.703125 252.492188 367.292969 C 251.234375 368.886719 249.390625 369.890625 247.296875 369.890625 Z M 107.675781 356.996094 L 238.671875 356.996094 L 227.949219 322.160156 L 198.886719 322.160156 L 198.886719 339.578125 C 198.886719 343.09375 196.039062 346.027344 192.4375 346.027344 L 153.828125 346.027344 C 150.308594 346.027344 147.378906 343.179688 147.378906 339.578125 L 147.378906 322.160156 L 118.3125 322.160156 Z M 107.675781 356.996094 " fill-opacity="1" fill-rule="nonzero"/></g><path fill="#000000" d="M 58.09375 246.128906 L 47.792969 246.128906 C 44.273438 246.128906 41.34375 243.28125 41.34375 239.683594 C 41.34375 236.082031 44.191406 233.234375 47.792969 233.234375 L 58.09375 233.234375 C 61.613281 233.234375 64.542969 236.082031 64.542969 239.683594 C 64.542969 243.28125 61.613281 246.128906 58.09375 246.128906 Z M 58.09375 246.128906 " fill-opacity="1" fill-rule="nonzero"/><path fill="#000000" d="M 91.929688 246.128906 L 81.628906 246.128906 C 78.113281 246.128906 75.179688 243.28125 75.179688 239.683594 C 75.179688 236.082031 78.027344 233.234375 81.628906 233.234375 L 91.929688 233.234375 C 95.449219 233.234375 98.378906 236.082031 98.378906 239.683594 C 98.378906 243.28125 95.449219 246.128906 91.929688 246.128906 Z M 91.929688 246.128906 " fill-opacity="1" fill-rule="nonzero"/><path fill="#000000" d="M 173.425781 188.855469 C 172.589844 188.855469 171.835938 188.6875 170.996094 188.351562 C 168.902344 187.515625 167.480469 185.671875 167.058594 183.496094 C 164.128906 166.914062 174.933594 136.769531 192.773438 124.210938 C 202.488281 117.34375 213.210938 116.589844 222.925781 122.117188 C 223.429688 122.367188 223.929688 122.789062 224.265625 123.121094 L 236.996094 135.851562 C 237.835938 136.6875 238.421875 137.691406 238.671875 138.863281 C 240.597656 146.820312 238.753906 155.945312 233.644531 163.398438 C 228.871094 170.347656 222.171875 174.703125 214.550781 175.792969 C 208.4375 176.628906 187.746094 179.894531 177.195312 187.597656 C 176.105469 188.4375 174.765625 188.855469 173.425781 188.855469 Z M 209.609375 131.328125 C 206.507812 131.328125 203.410156 132.417969 200.226562 134.675781 C 190.007812 141.878906 181.96875 158.542969 179.957031 171.519531 C 191.9375 166.328125 206.257812 163.984375 212.875 163.0625 C 218.152344 162.308594 221.5 158.457031 223.007812 156.199219 C 225.6875 152.347656 226.945312 147.65625 226.441406 143.554688 L 215.804688 132.917969 C 213.710938 131.832031 211.703125 131.328125 209.609375 131.328125 Z M 209.609375 131.328125 " fill-opacity="1" fill-rule="nonzero"/><path fill="#000000" d="M 232.390625 146.820312 C 230.714844 146.820312 229.125 146.148438 227.867188 144.976562 L 215.136719 132.25 C 212.957031 130.070312 212.625 126.640625 214.382812 124.128906 L 235.488281 92.640625 C 236.578125 91.050781 238.253906 90.046875 240.179688 89.796875 C 242.105469 89.628906 244.03125 90.296875 245.371094 91.636719 L 268.40625 114.664062 C 269.746094 116.003906 270.414062 117.929688 270.246094 119.855469 C 270.078125 121.78125 268.992188 123.539062 267.398438 124.546875 L 235.90625 145.648438 C 234.902344 146.484375 233.644531 146.820312 232.390625 146.820312 Z M 228.035156 126.890625 L 233.226562 132.082031 L 253.832031 118.265625 L 241.855469 106.292969 Z M 228.035156 126.890625 " fill-opacity="1" fill-rule="nonzero"/><g clip-path="url(#1cc01fe956)"><path fill="#000000" d="M 263.882812 125.71875 C 262.207031 125.71875 260.53125 125.046875 259.359375 123.875 L 236.328125 100.847656 C 235.070312 99.59375 234.398438 97.835938 234.484375 96.074219 C 234.566406 94.316406 235.320312 92.640625 236.660156 91.46875 L 332.058594 8.40625 C 337.253906 3.882812 344.957031 4.554688 350.316406 9.996094 C 355.761719 15.4375 356.347656 23.058594 351.910156 28.25 L 268.738281 123.539062 C 267.566406 124.878906 265.890625 125.71875 264.132812 125.71875 C 264.050781 125.71875 263.964844 125.71875 263.882812 125.71875 Z M 250.230469 96.578125 L 263.546875 109.890625 L 341.859375 19.960938 C 341.609375 19.375 340.769531 18.453125 340.101562 18.203125 Z M 336.164062 13.175781 L 340.351562 18.035156 Z M 336.164062 13.175781 Z M 336.164062 13.175781 " fill-opacity="1" fill-rule="nonzero"/></g><path fill="#000000" d="M 101.394531 103.277344 L 51.644531 103.277344 C 48.128906 103.277344 45.195312 100.429688 45.195312 96.828125 L 45.195312 59.148438 C 45.195312 55.632812 48.042969 52.699219 51.644531 52.699219 L 101.480469 52.699219 C 104.996094 52.699219 107.929688 55.546875 107.929688 59.148438 L 107.929688 96.914062 C 107.84375 100.429688 104.996094 103.277344 101.394531 103.277344 Z M 58.09375 90.464844 L 95.03125 90.464844 L 95.03125 65.511719 L 58.09375 65.511719 Z M 58.09375 90.464844 " fill-opacity="1" fill-rule="nonzero"/><path fill="#000000" d="M 101.394531 125.71875 L 51.644531 125.71875 C 48.128906 125.71875 45.195312 122.871094 45.195312 119.269531 C 45.195312 115.667969 48.042969 112.824219 51.644531 112.824219 L 101.480469 112.824219 C 104.996094 112.824219 107.929688 115.667969 107.929688 119.269531 C 107.929688 122.871094 104.996094 125.71875 101.394531 125.71875 Z M 101.394531 125.71875 " fill-opacity="1" fill-rule="nonzero"/><path fill="#000000" d="M 176.691406 103.277344 L 126.859375 103.277344 C 123.339844 103.277344 120.410156 100.429688 120.410156 96.828125 L 120.410156 59.148438 C 120.410156 55.632812 123.257812 52.699219 126.859375 52.699219 L 176.691406 52.699219 C 180.210938 52.699219 183.140625 55.546875 183.140625 59.148438 L 183.140625 96.914062 C 183.140625 100.429688 180.210938 103.277344 176.691406 103.277344 Z M 133.308594 90.464844 L 170.242188 90.464844 L 170.242188 65.511719 L 133.308594 65.511719 Z M 133.308594 90.464844 " fill-opacity="1" fill-rule="nonzero"/><path fill="#000000" d="M 176.691406 125.71875 L 126.859375 125.71875 C 123.339844 125.71875 120.410156 122.871094 120.410156 119.269531 C 120.410156 115.667969 123.257812 112.824219 126.859375 112.824219 L 176.691406 112.824219 C 180.210938 112.824219 183.140625 115.667969 183.140625 119.269531 C 183.140625 122.871094 180.210938 125.71875 176.691406 125.71875 Z M 176.691406 125.71875 " fill-opacity="1" fill-rule="nonzero"/></svg>