<svg xmlns="http://www.w3.org/2000/svg" xmlns:xlink="http://www.w3.org/1999/xlink" width="500" zoomAndPan="magnify" viewBox="0 0 375 374.999991" height="500" preserveAspectRatio="xMidYMid meet" version="1.0"><defs><clipPath id="687760ceb6"><path d="M 0 113.4375 L 375 113.4375 L 375 261.9375 L 0 261.9375 Z M 0 113.4375 " clip-rule="nonzero"/></clipPath></defs><rect x="-37.5" width="450" fill="#ffffff" y="-37.499999" height="449.999989" fill-opacity="1"/><rect x="-37.5" width="450" fill="#ffffff" y="-37.499999" height="449.999989" fill-opacity="1"/><g clip-path="url(#687760ceb6)"><path fill="#000000" d="M 359.660156 113.777344 L 15.339844 113.777344 C 14.332031 113.777344 13.335938 113.878906 12.347656 114.074219 C 11.359375 114.273438 10.402344 114.5625 9.46875 114.949219 C 8.539062 115.335938 7.65625 115.808594 6.816406 116.371094 C 5.980469 116.933594 5.207031 117.570312 4.492188 118.285156 C 3.78125 118.996094 3.144531 119.773438 2.585938 120.613281 C 2.027344 121.453125 1.554688 122.339844 1.167969 123.273438 C 0.78125 124.207031 0.492188 125.167969 0.292969 126.160156 C 0.0976562 127.148438 0 128.148438 0 129.160156 L 0 246.234375 C 0 247.242188 0.0976562 248.242188 0.292969 249.234375 C 0.492188 250.222656 0.78125 251.1875 1.167969 252.117188 C 1.554688 253.050781 2.027344 253.9375 2.585938 254.777344 C 3.144531 255.617188 3.78125 256.394531 4.492188 257.109375 C 5.207031 257.820312 5.980469 258.460938 6.816406 259.019531 C 7.65625 259.582031 8.539062 260.054688 9.46875 260.441406 C 10.402344 260.828125 11.359375 261.121094 12.347656 261.316406 C 13.335938 261.515625 14.332031 261.613281 15.339844 261.613281 L 359.660156 261.613281 C 360.667969 261.613281 361.664062 261.515625 362.652344 261.316406 C 363.640625 261.121094 364.597656 260.828125 365.53125 260.441406 C 366.460938 260.054688 367.34375 259.582031 368.183594 259.019531 C 369.019531 258.460938 369.792969 257.820312 370.507812 257.109375 C 371.21875 256.394531 371.855469 255.617188 372.414062 254.777344 C 372.972656 253.9375 373.445312 253.050781 373.832031 252.117188 C 374.21875 251.1875 374.507812 250.222656 374.707031 249.234375 C 374.902344 248.242188 375 247.242188 375 246.234375 L 375 129.160156 C 375 128.148438 374.902344 127.148438 374.707031 126.160156 C 374.507812 125.167969 374.21875 124.207031 373.832031 123.273438 C 373.445312 122.339844 372.972656 121.453125 372.414062 120.613281 C 371.855469 119.773438 371.21875 118.996094 370.507812 118.285156 C 369.792969 117.570312 369.019531 116.933594 368.183594 116.371094 C 367.34375 115.808594 366.460938 115.335938 365.53125 114.949219 C 364.597656 114.5625 363.640625 114.273438 362.652344 114.074219 C 361.664062 113.878906 360.667969 113.777344 359.660156 113.777344 Z M 364.773438 246.234375 C 364.773438 246.570312 364.738281 246.902344 364.675781 247.234375 C 364.609375 247.5625 364.511719 247.882812 364.382812 248.195312 C 364.253906 248.507812 364.097656 248.800781 363.910156 249.082031 C 363.722656 249.359375 363.511719 249.621094 363.273438 249.859375 C 363.039062 250.097656 362.777344 250.308594 362.5 250.496094 C 362.222656 250.683594 361.925781 250.839844 361.617188 250.96875 C 361.304688 251.097656 360.984375 251.195312 360.65625 251.261719 C 360.328125 251.328125 359.996094 251.359375 359.660156 251.359375 L 15.339844 251.359375 C 15.003906 251.359375 14.671875 251.328125 14.34375 251.261719 C 14.015625 251.195312 13.695312 251.097656 13.382812 250.96875 C 13.074219 250.839844 12.777344 250.683594 12.5 250.496094 C 12.222656 250.308594 11.960938 250.097656 11.726562 249.859375 C 11.488281 249.621094 11.277344 249.359375 11.089844 249.082031 C 10.902344 248.800781 10.746094 248.507812 10.617188 248.195312 C 10.488281 247.882812 10.390625 247.5625 10.324219 247.234375 C 10.261719 246.902344 10.226562 246.570312 10.226562 246.234375 L 10.226562 129.160156 C 10.226562 128.824219 10.261719 128.488281 10.324219 128.160156 C 10.390625 127.828125 10.488281 127.507812 10.617188 127.195312 C 10.746094 126.886719 10.902344 126.589844 11.089844 126.3125 C 11.277344 126.03125 11.488281 125.773438 11.726562 125.535156 C 11.960938 125.296875 12.222656 125.082031 12.5 124.894531 C 12.777344 124.710938 13.074219 124.550781 13.382812 124.421875 C 13.695312 124.292969 14.015625 124.195312 14.34375 124.132812 C 14.671875 124.066406 15.003906 124.03125 15.339844 124.03125 L 359.660156 124.03125 C 359.996094 124.03125 360.328125 124.066406 360.65625 124.132812 C 360.984375 124.195312 361.304688 124.292969 361.617188 124.421875 C 361.925781 124.550781 362.222656 124.710938 362.5 124.894531 C 362.777344 125.082031 363.039062 125.296875 363.273438 125.535156 C 363.511719 125.773438 363.722656 126.03125 363.910156 126.3125 C 364.097656 126.589844 364.253906 126.886719 364.382812 127.195312 C 364.511719 127.507812 364.609375 127.828125 364.675781 128.160156 C 364.738281 128.488281 364.773438 128.824219 364.773438 129.160156 Z M 30.527344 152.246094 L 30.527344 142.078125 C 30.527344 141.625 30.613281 141.1875 30.789062 140.769531 C 30.960938 140.351562 31.207031 139.980469 31.527344 139.660156 C 31.847656 139.339844 32.214844 139.09375 32.632812 138.921875 C 33.050781 138.746094 33.484375 138.660156 33.9375 138.660156 L 57.324219 138.660156 C 57.777344 138.660156 58.210938 138.746094 58.628906 138.921875 C 59.046875 139.09375 59.414062 139.339844 59.734375 139.660156 C 60.054688 139.980469 60.300781 140.351562 60.472656 140.769531 C 60.644531 141.1875 60.734375 141.625 60.734375 142.078125 L 60.734375 152.175781 C 60.734375 152.628906 60.644531 153.066406 60.472656 153.484375 C 60.300781 153.902344 60.054688 154.273438 59.734375 154.59375 C 59.414062 154.914062 59.046875 155.160156 58.628906 155.335938 C 58.210938 155.507812 57.777344 155.59375 57.324219 155.59375 L 33.9375 155.59375 C 33.484375 155.59375 33.050781 155.507812 32.632812 155.335938 C 32.214844 155.160156 31.847656 154.914062 31.527344 154.59375 C 31.207031 154.273438 30.960938 153.902344 30.789062 153.484375 C 30.613281 153.066406 30.527344 152.628906 30.527344 152.175781 Z M 30.527344 179.210938 L 30.527344 169.042969 C 30.527344 168.589844 30.613281 168.15625 30.789062 167.734375 C 30.960938 167.316406 31.207031 166.949219 31.527344 166.628906 C 31.847656 166.308594 32.214844 166.058594 32.632812 165.886719 C 33.050781 165.710938 33.484375 165.625 33.9375 165.625 L 63.289062 165.625 C 63.742188 165.625 64.175781 165.710938 64.59375 165.886719 C 65.011719 166.058594 65.378906 166.308594 65.699219 166.628906 C 66.019531 166.949219 66.265625 167.316406 66.4375 167.734375 C 66.613281 168.15625 66.699219 168.589844 66.699219 169.042969 L 66.699219 179.144531 C 66.699219 179.597656 66.613281 180.03125 66.4375 180.449219 C 66.265625 180.871094 66.019531 181.238281 65.699219 181.558594 C 65.378906 181.878906 65.011719 182.128906 64.59375 182.300781 C 64.175781 182.472656 63.742188 182.5625 63.289062 182.5625 L 33.9375 182.5625 C 33.484375 182.5625 33.050781 182.472656 32.632812 182.300781 C 32.214844 182.128906 31.847656 181.878906 31.527344 181.558594 C 31.207031 181.238281 30.960938 180.871094 30.789062 180.449219 C 30.613281 180.03125 30.527344 179.597656 30.527344 179.144531 Z M 349.125 169.113281 L 349.125 179.210938 C 349.125 179.664062 349.039062 180.101562 348.867188 180.519531 C 348.691406 180.9375 348.445312 181.308594 348.125 181.628906 C 347.808594 181.949219 347.4375 182.195312 347.019531 182.367188 C 346.601562 182.542969 346.167969 182.628906 345.714844 182.628906 L 316.363281 182.628906 C 315.910156 182.628906 315.476562 182.542969 315.058594 182.367188 C 314.640625 182.195312 314.273438 181.949219 313.953125 181.628906 C 313.632812 181.308594 313.386719 180.9375 313.214844 180.519531 C 313.039062 180.101562 312.953125 179.664062 312.953125 179.210938 L 312.953125 169.042969 C 312.953125 168.589844 313.042969 168.15625 313.214844 167.734375 C 313.386719 167.316406 313.632812 166.949219 313.953125 166.628906 C 314.273438 166.308594 314.640625 166.058594 315.058594 165.886719 C 315.476562 165.710938 315.910156 165.625 316.363281 165.625 L 345.714844 165.625 C 346.167969 165.625 346.601562 165.710938 347.019531 165.886719 C 347.4375 166.058594 347.808594 166.308594 348.125 166.628906 C 348.445312 166.949219 348.691406 167.316406 348.867188 167.734375 C 349.039062 168.15625 349.125 168.589844 349.125 169.042969 Z M 30.527344 206.058594 L 30.527344 195.992188 C 30.527344 195.539062 30.613281 195.101562 30.789062 194.683594 C 30.960938 194.265625 31.207031 193.894531 31.527344 193.574219 C 31.847656 193.253906 32.214844 193.007812 32.632812 192.835938 C 33.050781 192.660156 33.484375 192.574219 33.9375 192.574219 L 76.550781 192.574219 C 77.003906 192.574219 77.4375 192.660156 77.855469 192.835938 C 78.273438 193.007812 78.640625 193.253906 78.960938 193.574219 C 79.28125 193.894531 79.527344 194.265625 79.699219 194.683594 C 79.875 195.101562 79.960938 195.539062 79.960938 195.992188 L 79.960938 206.058594 C 79.960938 206.511719 79.875 206.945312 79.699219 207.367188 C 79.527344 207.785156 79.28125 208.152344 78.960938 208.472656 C 78.640625 208.792969 78.273438 209.042969 77.855469 209.214844 C 77.4375 209.390625 77.003906 209.476562 76.550781 209.476562 L 33.9375 209.476562 C 33.484375 209.476562 33.050781 209.390625 32.632812 209.214844 C 32.214844 209.042969 31.847656 208.792969 31.527344 208.472656 C 31.207031 208.152344 30.960938 207.785156 30.789062 207.367188 C 30.613281 206.945312 30.527344 206.511719 30.527344 206.058594 Z M 230.113281 222.394531 L 230.113281 232.492188 C 230.113281 232.945312 230.027344 233.382812 229.855469 233.800781 C 229.679688 234.21875 229.433594 234.589844 229.113281 234.910156 C 228.796875 235.230469 228.425781 235.476562 228.007812 235.652344 C 227.589844 235.824219 227.15625 235.910156 226.703125 235.910156 L 120.441406 235.910156 C 119.992188 235.910156 119.554688 235.824219 119.136719 235.652344 C 118.722656 235.476562 118.351562 235.230469 118.03125 234.910156 C 117.714844 234.589844 117.464844 234.21875 117.292969 233.800781 C 117.121094 233.382812 117.035156 232.945312 117.035156 232.492188 L 117.035156 222.394531 C 117.035156 221.941406 117.121094 221.503906 117.292969 221.085938 C 117.464844 220.667969 117.714844 220.296875 118.03125 219.976562 C 118.351562 219.65625 118.722656 219.410156 119.136719 219.238281 C 119.554688 219.0625 119.992188 218.976562 120.441406 218.976562 L 226.703125 218.976562 C 227.15625 218.976562 227.589844 219.0625 228.007812 219.238281 C 228.425781 219.410156 228.796875 219.65625 229.113281 219.976562 C 229.433594 220.296875 229.679688 220.667969 229.855469 221.085938 C 230.027344 221.503906 230.113281 221.941406 230.113281 222.394531 Z M 349.125 195.992188 L 349.125 206.058594 C 349.125 206.511719 349.039062 206.945312 348.867188 207.367188 C 348.691406 207.785156 348.445312 208.152344 348.125 208.472656 C 347.808594 208.792969 347.4375 209.042969 347.019531 209.214844 C 346.601562 209.390625 346.167969 209.476562 345.714844 209.476562 L 303.101562 209.476562 C 302.648438 209.476562 302.214844 209.390625 301.796875 209.214844 C 301.378906 209.042969 301.011719 208.792969 300.691406 208.472656 C 300.371094 208.152344 300.125 207.785156 299.953125 207.367188 C 299.78125 206.945312 299.691406 206.511719 299.691406 206.058594 L 299.691406 195.992188 C 299.691406 195.539062 299.78125 195.101562 299.953125 194.683594 C 300.125 194.265625 300.371094 193.894531 300.691406 193.574219 C 301.011719 193.253906 301.378906 193.007812 301.796875 192.835938 C 302.214844 192.660156 302.648438 192.574219 303.101562 192.574219 L 345.714844 192.574219 C 346.167969 192.574219 346.601562 192.660156 347.019531 192.835938 C 347.4375 193.007812 347.808594 193.253906 348.125 193.574219 C 348.445312 193.894531 348.691406 194.265625 348.867188 194.683594 C 349.039062 195.101562 349.125 195.539062 349.125 195.992188 Z M 68.4375 152.570312 L 68.4375 141.683594 C 68.4375 141.285156 68.515625 140.898438 68.667969 140.527344 C 68.820312 140.15625 69.039062 139.828125 69.320312 139.546875 C 69.605469 139.261719 69.929688 139.042969 70.300781 138.890625 C 70.667969 138.738281 71.054688 138.660156 71.453125 138.660156 L 88.976562 138.660156 C 89.382812 138.652344 89.773438 138.726562 90.148438 138.875 C 90.523438 139.027344 90.855469 139.242188 91.144531 139.527344 C 91.433594 139.8125 91.65625 140.140625 91.8125 140.515625 C 91.96875 140.890625 92.046875 141.28125 92.046875 141.683594 L 92.046875 152.570312 C 92.046875 152.972656 91.96875 153.355469 91.816406 153.726562 C 91.664062 154.097656 91.445312 154.425781 91.160156 154.710938 C 90.878906 154.992188 90.550781 155.210938 90.183594 155.363281 C 89.8125 155.519531 89.429688 155.59375 89.027344 155.59375 L 71.453125 155.59375 C 71.054688 155.59375 70.667969 155.519531 70.300781 155.363281 C 69.929688 155.210938 69.605469 154.992188 69.320312 154.710938 C 69.039062 154.425781 68.820312 154.097656 68.667969 153.726562 C 68.515625 153.355469 68.4375 152.972656 68.4375 152.570312 Z M 100.566406 152.570312 L 100.566406 141.683594 C 100.566406 141.285156 100.640625 140.898438 100.792969 140.527344 C 100.941406 140.160156 101.160156 139.832031 101.441406 139.546875 C 101.722656 139.261719 102.046875 139.042969 102.417969 138.890625 C 102.785156 138.738281 103.167969 138.660156 103.566406 138.660156 L 121.125 138.660156 C 121.523438 138.660156 121.910156 138.738281 122.28125 138.890625 C 122.648438 139.042969 122.976562 139.261719 123.257812 139.546875 C 123.542969 139.828125 123.757812 140.15625 123.914062 140.527344 C 124.066406 140.898438 124.140625 141.285156 124.140625 141.683594 L 124.140625 152.570312 C 124.140625 152.972656 124.066406 153.355469 123.914062 153.726562 C 123.757812 154.097656 123.542969 154.425781 123.257812 154.710938 C 122.976562 154.992188 122.648438 155.210938 122.28125 155.363281 C 121.910156 155.519531 121.523438 155.59375 121.125 155.59375 L 103.585938 155.59375 C 103.183594 155.597656 102.796875 155.523438 102.429688 155.371094 C 102.058594 155.214844 101.730469 155 101.445312 154.714844 C 101.164062 154.429688 100.945312 154.101562 100.792969 153.730469 C 100.640625 153.359375 100.566406 152.972656 100.566406 152.570312 Z M 132.699219 152.570312 L 132.699219 141.683594 C 132.699219 141.285156 132.777344 140.898438 132.929688 140.527344 C 133.082031 140.15625 133.300781 139.828125 133.582031 139.546875 C 133.867188 139.261719 134.191406 139.042969 134.5625 138.890625 C 134.929688 138.738281 135.316406 138.660156 135.714844 138.660156 L 153.273438 138.660156 C 153.671875 138.660156 154.054688 138.738281 154.425781 138.890625 C 154.792969 139.042969 155.117188 139.261719 155.398438 139.546875 C 155.679688 139.832031 155.898438 140.160156 156.050781 140.527344 C 156.199219 140.898438 156.273438 141.285156 156.273438 141.683594 L 156.273438 152.570312 C 156.273438 152.972656 156.199219 153.355469 156.050781 153.726562 C 155.898438 154.097656 155.679688 154.425781 155.398438 154.707031 C 155.117188 154.992188 154.792969 155.210938 154.425781 155.363281 C 154.054688 155.519531 153.671875 155.59375 153.273438 155.59375 L 135.734375 155.59375 C 135.332031 155.59375 134.949219 155.519531 134.578125 155.363281 C 134.207031 155.210938 133.882812 154.992188 133.597656 154.710938 C 133.316406 154.425781 133.097656 154.097656 132.945312 153.726562 C 132.792969 153.355469 132.714844 152.972656 132.714844 152.570312 Z M 164.847656 152.570312 L 164.847656 141.683594 C 164.84375 141.285156 164.917969 140.898438 165.070312 140.527344 C 165.222656 140.160156 165.4375 139.832031 165.71875 139.546875 C 166 139.261719 166.324219 139.042969 166.695312 138.890625 C 167.0625 138.738281 167.449219 138.660156 167.847656 138.660156 L 185.386719 138.660156 C 185.785156 138.660156 186.171875 138.738281 186.539062 138.890625 C 186.910156 139.042969 187.238281 139.261719 187.519531 139.546875 C 187.800781 139.828125 188.019531 140.15625 188.171875 140.527344 C 188.328125 140.898438 188.402344 141.285156 188.402344 141.683594 L 188.402344 152.570312 C 188.402344 152.972656 188.328125 153.355469 188.171875 153.726562 C 188.019531 154.097656 187.800781 154.425781 187.519531 154.710938 C 187.238281 154.992188 186.910156 155.210938 186.539062 155.363281 C 186.171875 155.519531 185.785156 155.59375 185.386719 155.59375 L 167.863281 155.59375 C 167.464844 155.59375 167.082031 155.519531 166.710938 155.363281 C 166.34375 155.210938 166.019531 154.992188 165.734375 154.707031 C 165.453125 154.425781 165.238281 154.097656 165.085938 153.726562 C 164.9375 153.355469 164.863281 152.972656 164.863281 152.570312 Z M 196.976562 152.570312 L 196.976562 141.683594 C 196.976562 141.285156 197.054688 140.898438 197.207031 140.527344 C 197.359375 140.15625 197.578125 139.828125 197.859375 139.546875 C 198.144531 139.261719 198.46875 139.042969 198.839844 138.890625 C 199.210938 138.738281 199.59375 138.660156 199.996094 138.660156 L 217.535156 138.660156 C 217.933594 138.660156 218.316406 138.738281 218.6875 138.890625 C 219.054688 139.042969 219.378906 139.261719 219.660156 139.546875 C 219.941406 139.832031 220.160156 140.160156 220.3125 140.527344 C 220.460938 140.898438 220.535156 141.285156 220.535156 141.683594 L 220.535156 152.570312 C 220.535156 152.972656 220.460938 153.355469 220.3125 153.726562 C 220.160156 154.097656 219.941406 154.425781 219.660156 154.707031 C 219.378906 154.992188 219.054688 155.210938 218.6875 155.363281 C 218.316406 155.519531 217.933594 155.59375 217.535156 155.59375 L 200.011719 155.59375 C 199.609375 155.59375 199.226562 155.519531 198.855469 155.363281 C 198.488281 155.210938 198.160156 154.992188 197.878906 154.710938 C 197.59375 154.425781 197.378906 154.097656 197.222656 153.726562 C 197.070312 153.355469 196.996094 152.972656 196.996094 152.570312 Z M 229.125 152.570312 L 229.125 141.683594 C 229.125 141.285156 229.203125 140.898438 229.355469 140.527344 C 229.507812 140.15625 229.726562 139.828125 230.007812 139.546875 C 230.292969 139.261719 230.617188 139.042969 230.988281 138.890625 C 231.355469 138.738281 231.742188 138.660156 232.140625 138.660156 L 249.664062 138.660156 C 250.066406 138.660156 250.449219 138.738281 250.820312 138.890625 C 251.1875 139.042969 251.515625 139.261719 251.796875 139.546875 C 252.082031 139.828125 252.300781 140.15625 252.453125 140.527344 C 252.605469 140.898438 252.683594 141.285156 252.683594 141.683594 L 252.683594 152.570312 C 252.683594 152.972656 252.605469 153.355469 252.453125 153.726562 C 252.300781 154.097656 252.082031 154.425781 251.796875 154.710938 C 251.515625 154.992188 251.1875 155.210938 250.820312 155.363281 C 250.449219 155.519531 250.066406 155.59375 249.664062 155.59375 L 232.160156 155.59375 C 231.757812 155.59375 231.375 155.519531 231.003906 155.363281 C 230.636719 155.210938 230.308594 154.992188 230.027344 154.710938 C 229.742188 154.425781 229.523438 154.097656 229.371094 153.726562 C 229.21875 153.355469 229.140625 152.972656 229.140625 152.570312 Z M 261.273438 152.570312 L 261.273438 141.683594 C 261.269531 141.285156 261.34375 140.898438 261.496094 140.527344 C 261.648438 140.160156 261.863281 139.832031 262.144531 139.546875 C 262.425781 139.261719 262.753906 139.042969 263.121094 138.890625 C 263.488281 138.738281 263.875 138.660156 264.273438 138.660156 L 281.8125 138.660156 C 282.210938 138.660156 282.597656 138.738281 282.96875 138.890625 C 283.335938 139.042969 283.664062 139.261719 283.945312 139.546875 C 284.230469 139.828125 284.445312 140.15625 284.601562 140.527344 C 284.753906 140.898438 284.828125 141.285156 284.828125 141.683594 L 284.828125 152.570312 C 284.828125 152.972656 284.753906 153.355469 284.601562 153.726562 C 284.445312 154.097656 284.230469 154.425781 283.945312 154.710938 C 283.664062 154.992188 283.335938 155.210938 282.96875 155.363281 C 282.597656 155.519531 282.210938 155.59375 281.8125 155.59375 L 264.289062 155.59375 C 263.890625 155.59375 263.507812 155.519531 263.136719 155.363281 C 262.769531 155.210938 262.445312 154.992188 262.164062 154.707031 C 261.878906 154.425781 261.664062 154.097656 261.511719 153.726562 C 261.363281 153.355469 261.289062 152.972656 261.289062 152.570312 Z M 80.113281 165.625 L 97.566406 165.625 C 97.964844 165.628906 98.347656 165.707031 98.714844 165.859375 C 99.078125 166.011719 99.402344 166.230469 99.683594 166.511719 C 99.964844 166.792969 100.183594 167.117188 100.335938 167.484375 C 100.488281 167.851562 100.566406 168.234375 100.566406 168.632812 L 100.566406 179.535156 C 100.566406 179.9375 100.492188 180.324219 100.339844 180.695312 C 100.183594 181.0625 99.96875 181.390625 99.683594 181.675781 C 99.402344 181.957031 99.074219 182.175781 98.707031 182.332031 C 98.335938 182.484375 97.953125 182.5625 97.550781 182.5625 L 80.113281 182.5625 C 79.714844 182.5625 79.328125 182.484375 78.960938 182.332031 C 78.589844 182.175781 78.261719 181.957031 77.980469 181.675781 C 77.699219 181.390625 77.480469 181.0625 77.328125 180.695312 C 77.171875 180.324219 77.097656 179.9375 77.097656 179.535156 L 77.097656 168.632812 C 77.097656 168.234375 77.175781 167.851562 77.332031 167.480469 C 77.484375 167.113281 77.703125 166.789062 77.984375 166.507812 C 78.269531 166.222656 78.59375 166.007812 78.964844 165.855469 C 79.332031 165.703125 79.714844 165.625 80.113281 165.625 Z M 131.25 182.5625 L 113.589844 182.5625 C 113.191406 182.5625 112.808594 182.484375 112.4375 182.332031 C 112.070312 182.175781 111.746094 181.957031 111.464844 181.675781 C 111.183594 181.390625 110.964844 181.0625 110.8125 180.691406 C 110.664062 180.320312 110.589844 179.9375 110.589844 179.535156 L 110.589844 168.632812 C 110.589844 168.234375 110.667969 167.851562 110.820312 167.484375 C 110.972656 167.113281 111.1875 166.789062 111.46875 166.507812 C 111.75 166.226562 112.074219 166.007812 112.441406 165.855469 C 112.808594 165.703125 113.191406 165.625 113.589844 165.625 L 131.128906 165.625 C 131.53125 165.625 131.914062 165.699219 132.285156 165.851562 C 132.652344 166 132.980469 166.21875 133.261719 166.5 C 133.546875 166.78125 133.765625 167.109375 133.917969 167.480469 C 134.070312 167.847656 134.148438 168.234375 134.148438 168.632812 L 134.148438 179.535156 C 134.148438 179.9375 134.070312 180.324219 133.917969 180.695312 C 133.765625 181.0625 133.546875 181.390625 133.265625 181.675781 C 132.980469 181.957031 132.65625 182.175781 132.285156 182.332031 C 131.914062 182.484375 131.53125 182.5625 131.128906 182.5625 Z M 147.273438 165.625 L 164.691406 165.625 C 165.09375 165.625 165.476562 165.699219 165.847656 165.851562 C 166.214844 166 166.542969 166.21875 166.824219 166.5 C 167.109375 166.78125 167.328125 167.109375 167.480469 167.480469 C 167.632812 167.847656 167.710938 168.234375 167.710938 168.632812 L 167.710938 179.535156 C 167.710938 179.9375 167.632812 180.324219 167.480469 180.695312 C 167.328125 181.0625 167.109375 181.390625 166.828125 181.675781 C 166.542969 181.957031 166.21875 182.175781 165.847656 182.332031 C 165.476562 182.484375 165.09375 182.5625 164.691406 182.5625 L 147.152344 182.5625 C 146.753906 182.5625 146.371094 182.484375 146 182.332031 C 145.632812 182.175781 145.308594 181.957031 145.027344 181.675781 C 144.746094 181.390625 144.527344 181.0625 144.375 180.691406 C 144.226562 180.320312 144.152344 179.9375 144.152344 179.535156 L 144.152344 168.632812 C 144.152344 168.234375 144.230469 167.851562 144.382812 167.484375 C 144.535156 167.113281 144.75 166.789062 145.03125 166.507812 C 145.3125 166.226562 145.636719 166.007812 146.003906 165.855469 C 146.371094 165.703125 146.753906 165.625 147.152344 165.625 Z M 198.410156 182.5625 L 180.683594 182.5625 C 180.28125 182.5625 179.898438 182.484375 179.527344 182.332031 C 179.15625 182.175781 178.832031 181.957031 178.546875 181.675781 C 178.265625 181.390625 178.046875 181.0625 177.894531 180.695312 C 177.742188 180.324219 177.664062 179.9375 177.664062 179.535156 L 177.664062 168.632812 C 177.664062 168.234375 177.742188 167.847656 177.894531 167.480469 C 178.046875 167.109375 178.265625 166.78125 178.550781 166.5 C 178.832031 166.21875 179.160156 166 179.527344 165.851562 C 179.898438 165.699219 180.28125 165.625 180.683594 165.625 L 198.203125 165.625 C 198.605469 165.625 198.988281 165.699219 199.359375 165.851562 C 199.726562 166 200.054688 166.21875 200.335938 166.5 C 200.621094 166.78125 200.839844 167.109375 200.992188 167.480469 C 201.144531 167.847656 201.222656 168.234375 201.222656 168.632812 L 201.222656 179.535156 C 201.222656 179.933594 201.148438 180.316406 200.996094 180.683594 C 200.847656 181.050781 200.632812 181.375 200.355469 181.65625 C 200.078125 181.941406 199.757812 182.160156 199.394531 182.316406 C 199.03125 182.472656 198.652344 182.554688 198.253906 182.5625 Z M 231.972656 182.5625 L 214.296875 182.5625 C 213.902344 182.550781 213.527344 182.464844 213.167969 182.304688 C 212.808594 182.148438 212.492188 181.929688 212.21875 181.644531 C 211.941406 181.363281 211.734375 181.039062 211.585938 180.675781 C 211.4375 180.308594 211.363281 179.929688 211.363281 179.535156 L 211.363281 168.632812 C 211.363281 168.234375 211.441406 167.847656 211.59375 167.480469 C 211.746094 167.109375 211.964844 166.78125 212.25 166.5 C 212.53125 166.21875 212.859375 166 213.226562 165.851562 C 213.597656 165.699219 213.980469 165.625 214.378906 165.625 L 231.816406 165.625 C 232.21875 165.625 232.601562 165.699219 232.972656 165.851562 C 233.339844 166 233.667969 166.21875 233.949219 166.5 C 234.234375 166.78125 234.453125 167.109375 234.605469 167.480469 C 234.757812 167.847656 234.835938 168.234375 234.835938 168.632812 L 234.835938 179.535156 C 234.835938 179.9375 234.757812 180.324219 234.605469 180.695312 C 234.453125 181.0625 234.234375 181.390625 233.953125 181.675781 C 233.667969 181.957031 233.34375 182.175781 232.972656 182.332031 C 232.601562 182.484375 232.21875 182.5625 231.816406 182.5625 Z M 265.550781 165.625 C 265.949219 165.625 266.332031 165.703125 266.699219 165.855469 C 267.066406 166.007812 267.390625 166.226562 267.671875 166.507812 C 267.953125 166.789062 268.171875 167.113281 268.324219 167.484375 C 268.476562 167.851562 268.550781 168.234375 268.550781 168.632812 L 268.550781 179.535156 C 268.554688 179.9375 268.480469 180.320312 268.328125 180.691406 C 268.175781 181.0625 267.960938 181.390625 267.679688 181.675781 C 267.398438 181.957031 267.070312 182.175781 266.703125 182.332031 C 266.335938 182.484375 265.949219 182.5625 265.550781 182.5625 L 247.859375 182.5625 C 247.457031 182.5625 247.074219 182.484375 246.703125 182.332031 C 246.332031 182.175781 246.007812 181.957031 245.722656 181.675781 C 245.441406 181.390625 245.222656 181.0625 245.070312 180.695312 C 244.917969 180.324219 244.839844 179.9375 244.839844 179.535156 L 244.839844 168.632812 C 244.839844 168.234375 244.917969 167.847656 245.070312 167.480469 C 245.222656 167.109375 245.441406 166.78125 245.726562 166.5 C 246.007812 166.21875 246.335938 166 246.703125 165.851562 C 247.074219 165.699219 247.457031 165.625 247.859375 165.625 Z M 299.113281 165.625 C 299.511719 165.625 299.894531 165.703125 300.261719 165.855469 C 300.628906 166.007812 300.953125 166.226562 301.234375 166.507812 C 301.515625 166.789062 301.734375 167.113281 301.886719 167.484375 C 302.039062 167.851562 302.113281 168.234375 302.113281 168.632812 L 302.113281 179.535156 C 302.117188 179.9375 302.042969 180.320312 301.890625 180.691406 C 301.738281 181.0625 301.523438 181.390625 301.242188 181.675781 C 300.960938 181.957031 300.632812 182.175781 300.265625 182.332031 C 299.898438 182.484375 299.511719 182.5625 299.113281 182.5625 L 281.421875 182.5625 C 281.019531 182.5625 280.636719 182.484375 280.265625 182.332031 C 279.894531 182.175781 279.570312 181.957031 279.285156 181.675781 C 279.003906 181.390625 278.785156 181.0625 278.632812 180.695312 C 278.480469 180.324219 278.402344 179.9375 278.402344 179.535156 L 278.402344 168.632812 C 278.40625 168.234375 278.484375 167.851562 278.636719 167.480469 C 278.792969 167.113281 279.011719 166.789062 279.292969 166.507812 C 279.574219 166.222656 279.902344 166.007812 280.269531 165.855469 C 280.636719 165.703125 281.023438 165.625 281.421875 165.625 Z M 113.558594 195.597656 L 113.558594 206.503906 C 113.550781 206.898438 113.46875 207.277344 113.3125 207.644531 C 113.15625 208.007812 112.9375 208.328125 112.65625 208.609375 C 112.375 208.886719 112.050781 209.101562 111.683594 209.25 C 111.316406 209.402344 110.933594 209.476562 110.539062 209.476562 L 93 209.476562 C 92.601562 209.476562 92.21875 209.398438 91.847656 209.246094 C 91.480469 209.09375 91.15625 208.878906 90.871094 208.59375 C 90.589844 208.3125 90.371094 207.988281 90.21875 207.621094 C 90.0625 207.25 89.984375 206.867188 89.984375 206.46875 L 89.984375 195.597656 C 89.984375 195.199219 90.058594 194.8125 90.210938 194.441406 C 90.367188 194.070312 90.582031 193.746094 90.867188 193.460938 C 91.148438 193.175781 91.476562 192.957031 91.84375 192.804688 C 92.214844 192.652344 92.601562 192.574219 93 192.574219 L 110.539062 192.574219 C 110.941406 192.574219 111.324219 192.652344 111.695312 192.804688 C 112.0625 192.957031 112.390625 193.175781 112.671875 193.460938 C 112.957031 193.746094 113.175781 194.070312 113.328125 194.441406 C 113.480469 194.8125 113.558594 195.199219 113.558594 195.597656 Z M 145.261719 192.574219 C 145.664062 192.574219 146.050781 192.648438 146.421875 192.800781 C 146.792969 192.953125 147.121094 193.171875 147.40625 193.453125 C 147.691406 193.738281 147.910156 194.066406 148.0625 194.4375 C 148.21875 194.808594 148.296875 195.195312 148.296875 195.597656 L 148.296875 206.503906 C 148.289062 206.902344 148.210938 207.285156 148.054688 207.652344 C 147.898438 208.015625 147.675781 208.339844 147.394531 208.617188 C 147.109375 208.898438 146.78125 209.109375 146.410156 209.257812 C 146.042969 209.40625 145.660156 209.480469 145.261719 209.476562 L 127.722656 209.476562 C 127.324219 209.476562 126.941406 209.398438 126.574219 209.246094 C 126.207031 209.09375 125.882812 208.875 125.601562 208.59375 C 125.320312 208.3125 125.101562 207.988281 124.949219 207.617188 C 124.796875 207.25 124.722656 206.867188 124.722656 206.46875 L 124.722656 195.597656 C 124.71875 195.199219 124.792969 194.8125 124.945312 194.441406 C 125.097656 194.074219 125.3125 193.746094 125.59375 193.460938 C 125.875 193.179688 126.199219 192.960938 126.570312 192.804688 C 126.9375 192.652344 127.324219 192.574219 127.722656 192.574219 Z M 179.984375 192.574219 C 180.382812 192.574219 180.769531 192.652344 181.136719 192.804688 C 181.507812 192.957031 181.832031 193.175781 182.117188 193.460938 C 182.398438 193.746094 182.617188 194.070312 182.769531 194.441406 C 182.921875 194.8125 183 195.199219 183 195.597656 L 183 206.503906 C 182.996094 206.898438 182.914062 207.28125 182.761719 207.644531 C 182.605469 208.011719 182.386719 208.335938 182.101562 208.613281 C 181.820312 208.890625 181.496094 209.105469 181.128906 209.253906 C 180.761719 209.402344 180.378906 209.476562 179.984375 209.476562 L 162.460938 209.476562 C 162.0625 209.476562 161.675781 209.402344 161.308594 209.25 C 160.9375 209.101562 160.609375 208.882812 160.328125 208.601562 C 160.042969 208.320312 159.828125 207.992188 159.671875 207.621094 C 159.519531 207.253906 159.441406 206.867188 159.441406 206.46875 L 159.441406 195.597656 C 159.441406 195.199219 159.519531 194.8125 159.671875 194.441406 C 159.824219 194.070312 160.042969 193.746094 160.328125 193.460938 C 160.609375 193.175781 160.9375 192.957031 161.304688 192.804688 C 161.675781 192.652344 162.058594 192.574219 162.460938 192.574219 Z M 194.164062 206.503906 L 194.164062 195.597656 C 194.164062 195.199219 194.242188 194.8125 194.394531 194.441406 C 194.546875 194.070312 194.765625 193.746094 195.046875 193.460938 C 195.332031 193.175781 195.65625 192.957031 196.027344 192.804688 C 196.398438 192.652344 196.78125 192.574219 197.183594 192.574219 L 214.773438 192.574219 C 215.171875 192.574219 215.554688 192.652344 215.925781 192.804688 C 216.292969 192.960938 216.617188 193.179688 216.898438 193.460938 C 217.179688 193.746094 217.398438 194.074219 217.550781 194.441406 C 217.699219 194.8125 217.773438 195.199219 217.773438 195.597656 L 217.773438 206.503906 C 217.769531 206.898438 217.6875 207.277344 217.535156 207.640625 C 217.378906 208.007812 217.164062 208.328125 216.882812 208.605469 C 216.601562 208.886719 216.277344 209.097656 215.914062 209.25 C 215.546875 209.398438 215.167969 209.476562 214.773438 209.476562 L 197.183594 209.476562 C 196.785156 209.476562 196.402344 209.402344 196.035156 209.253906 C 195.667969 209.105469 195.34375 208.890625 195.0625 208.613281 C 194.777344 208.335938 194.558594 208.011719 194.40625 207.644531 C 194.25 207.28125 194.167969 206.898438 194.164062 206.503906 Z M 249.441406 209.476562 L 231.902344 209.476562 C 231.503906 209.476562 231.121094 209.398438 230.753906 209.246094 C 230.382812 209.09375 230.058594 208.878906 229.777344 208.59375 C 229.492188 208.3125 229.273438 207.988281 229.121094 207.621094 C 228.964844 207.25 228.886719 206.867188 228.886719 206.46875 L 228.886719 195.597656 C 228.886719 195.199219 228.964844 194.8125 229.117188 194.441406 C 229.269531 194.070312 229.488281 193.746094 229.769531 193.460938 C 230.054688 193.175781 230.378906 192.957031 230.75 192.804688 C 231.117188 192.652344 231.503906 192.574219 231.902344 192.574219 L 249.441406 192.574219 C 249.84375 192.574219 250.226562 192.652344 250.597656 192.804688 C 250.96875 192.957031 251.292969 193.175781 251.578125 193.460938 C 251.859375 193.746094 252.078125 194.070312 252.230469 194.441406 C 252.382812 194.8125 252.460938 195.199219 252.460938 195.597656 L 252.460938 206.503906 C 252.453125 206.898438 252.371094 207.277344 252.214844 207.644531 C 252.058594 208.007812 251.839844 208.328125 251.558594 208.609375 C 251.277344 208.886719 250.953125 209.101562 250.585938 209.25 C 250.21875 209.402344 249.839844 209.476562 249.441406 209.476562 Z M 284.164062 209.476562 L 266.625 209.476562 C 266.226562 209.476562 265.84375 209.398438 265.476562 209.246094 C 265.109375 209.09375 264.785156 208.875 264.503906 208.59375 C 264.222656 208.3125 264.003906 207.988281 263.851562 207.617188 C 263.699219 207.25 263.625 206.867188 263.625 206.46875 L 263.625 195.597656 C 263.621094 195.199219 263.695312 194.8125 263.847656 194.441406 C 264 194.074219 264.214844 193.746094 264.496094 193.460938 C 264.777344 193.179688 265.105469 192.960938 265.472656 192.804688 C 265.839844 192.652344 266.226562 192.574219 266.625 192.574219 L 284.164062 192.574219 C 284.566406 192.574219 284.949219 192.652344 285.320312 192.804688 C 285.6875 192.957031 286.015625 193.175781 286.296875 193.460938 C 286.582031 193.746094 286.800781 194.070312 286.953125 194.441406 C 287.105469 194.8125 287.183594 195.199219 287.183594 195.597656 L 287.183594 206.503906 C 287.175781 206.898438 287.097656 207.28125 286.941406 207.644531 C 286.785156 208.011719 286.566406 208.335938 286.285156 208.613281 C 286.003906 208.890625 285.675781 209.105469 285.308594 209.253906 C 284.941406 209.402344 284.5625 209.476562 284.164062 209.476562 Z M 293.421875 152.535156 L 293.421875 141.683594 C 293.421875 141.285156 293.496094 140.898438 293.648438 140.527344 C 293.804688 140.15625 294.019531 139.828125 294.304688 139.546875 C 294.585938 139.261719 294.914062 139.042969 295.28125 138.890625 C 295.652344 138.738281 296.039062 138.660156 296.4375 138.660156 L 313.976562 138.660156 C 314.382812 138.652344 314.773438 138.722656 315.148438 138.871094 C 315.527344 139.019531 315.859375 139.238281 316.148438 139.523438 C 316.4375 139.808594 316.660156 140.136719 316.816406 140.511719 C 316.972656 140.886719 317.046875 141.277344 317.046875 141.683594 L 317.046875 152.570312 C 317.046875 152.972656 316.972656 153.355469 316.820312 153.726562 C 316.671875 154.097656 316.453125 154.425781 316.171875 154.707031 C 315.890625 154.992188 315.566406 155.210938 315.199219 155.363281 C 314.828125 155.519531 314.445312 155.59375 314.046875 155.59375 L 296.4375 155.59375 C 296.039062 155.59375 295.652344 155.519531 295.28125 155.363281 C 294.914062 155.210938 294.585938 154.992188 294.304688 154.710938 C 294.019531 154.425781 293.804688 154.097656 293.648438 153.726562 C 293.496094 153.355469 293.421875 152.972656 293.421875 152.570312 Z M 349.125 141.652344 L 349.125 152.570312 C 349.125 152.972656 349.046875 153.355469 348.894531 153.726562 C 348.742188 154.097656 348.523438 154.425781 348.242188 154.710938 C 347.957031 154.992188 347.632812 155.210938 347.261719 155.363281 C 346.894531 155.519531 346.507812 155.59375 346.109375 155.59375 L 328.585938 155.59375 C 328.183594 155.59375 327.800781 155.519531 327.429688 155.363281 C 327.0625 155.210938 326.734375 154.992188 326.453125 154.710938 C 326.167969 154.425781 325.949219 154.097656 325.796875 153.726562 C 325.644531 153.355469 325.566406 152.972656 325.566406 152.570312 L 325.566406 141.683594 C 325.566406 141.285156 325.644531 140.898438 325.796875 140.527344 C 325.949219 140.15625 326.167969 139.828125 326.453125 139.546875 C 326.734375 139.261719 327.0625 139.042969 327.429688 138.890625 C 327.800781 138.738281 328.183594 138.660156 328.585938 138.660156 L 346.109375 138.660156 C 346.507812 138.660156 346.894531 138.738281 347.261719 138.890625 C 347.632812 139.042969 347.957031 139.261719 348.242188 139.546875 C 348.523438 139.828125 348.742188 140.15625 348.894531 140.527344 C 349.046875 140.898438 349.125 141.285156 349.125 141.683594 Z M 110.265625 221.96875 L 110.265625 232.886719 C 110.269531 233.289062 110.195312 233.671875 110.042969 234.042969 C 109.890625 234.414062 109.675781 234.742188 109.394531 235.023438 C 109.113281 235.308594 108.789062 235.527344 108.417969 235.679688 C 108.050781 235.835938 107.667969 235.910156 107.265625 235.910156 L 89.726562 235.910156 C 89.328125 235.910156 88.941406 235.835938 88.574219 235.679688 C 88.203125 235.527344 87.875 235.308594 87.59375 235.027344 C 87.3125 234.742188 87.09375 234.414062 86.941406 234.042969 C 86.785156 233.671875 86.710938 233.289062 86.710938 232.886719 L 86.710938 221.984375 C 86.710938 221.585938 86.785156 221.199219 86.941406 220.828125 C 87.09375 220.460938 87.3125 220.132812 87.59375 219.851562 C 87.878906 219.570312 88.203125 219.351562 88.574219 219.199219 C 88.945312 219.050781 89.328125 218.972656 89.726562 218.976562 L 107.265625 218.976562 C 107.664062 218.976562 108.046875 219.054688 108.414062 219.207031 C 108.78125 219.359375 109.105469 219.574219 109.386719 219.859375 C 109.667969 220.140625 109.886719 220.464844 110.039062 220.832031 C 110.191406 221.203125 110.265625 221.585938 110.265625 221.984375 Z M 82.175781 221.96875 L 82.175781 232.886719 C 82.179688 233.289062 82.105469 233.671875 81.953125 234.042969 C 81.800781 234.414062 81.585938 234.742188 81.304688 235.023438 C 81.023438 235.308594 80.695312 235.527344 80.328125 235.679688 C 79.960938 235.835938 79.574219 235.910156 79.175781 235.910156 L 61.636719 235.910156 C 61.234375 235.910156 60.851562 235.835938 60.480469 235.679688 C 60.113281 235.527344 59.785156 235.308594 59.503906 235.027344 C 59.21875 234.742188 59.003906 234.414062 58.847656 234.042969 C 58.695312 233.671875 58.621094 233.289062 58.621094 232.886719 L 58.621094 221.984375 C 58.621094 221.585938 58.695312 221.199219 58.847656 220.828125 C 59.003906 220.460938 59.222656 220.132812 59.503906 219.851562 C 59.789062 219.570312 60.113281 219.351562 60.484375 219.199219 C 60.851562 219.050781 61.238281 218.972656 61.636719 218.976562 L 79.175781 218.976562 C 79.574219 218.976562 79.957031 219.054688 80.324219 219.207031 C 80.691406 219.359375 81.015625 219.574219 81.296875 219.859375 C 81.578125 220.140625 81.796875 220.464844 81.949219 220.832031 C 82.101562 221.203125 82.175781 221.585938 82.175781 221.984375 Z M 54.085938 221.96875 L 54.085938 232.886719 C 54.085938 233.28125 54.015625 233.664062 53.867188 234.03125 C 53.71875 234.398438 53.507812 234.722656 53.230469 235.007812 C 52.953125 235.289062 52.636719 235.507812 52.273438 235.667969 C 51.910156 235.824219 51.53125 235.90625 51.136719 235.910156 L 33.546875 235.910156 C 33.144531 235.910156 32.761719 235.835938 32.390625 235.679688 C 32.019531 235.527344 31.695312 235.308594 31.410156 235.027344 C 31.128906 234.742188 30.910156 234.414062 30.757812 234.042969 C 30.605469 233.671875 30.527344 233.289062 30.527344 232.886719 L 30.527344 221.984375 C 30.527344 221.585938 30.605469 221.199219 30.757812 220.828125 C 30.910156 220.460938 31.128906 220.132812 31.414062 219.851562 C 31.695312 219.570312 32.023438 219.351562 32.390625 219.199219 C 32.761719 219.050781 33.144531 218.972656 33.546875 218.976562 L 51.136719 218.976562 C 51.53125 218.984375 51.90625 219.066406 52.269531 219.21875 C 52.628906 219.375 52.949219 219.59375 53.226562 219.875 C 53.5 220.15625 53.710938 220.480469 53.863281 220.84375 C 54.011719 221.210938 54.085938 221.589844 54.085938 221.984375 Z M 260.796875 221.949219 L 260.796875 232.921875 C 260.796875 233.316406 260.71875 233.699219 260.566406 234.066406 C 260.417969 234.433594 260.203125 234.753906 259.921875 235.035156 C 259.640625 235.316406 259.320312 235.53125 258.953125 235.683594 C 258.589844 235.835938 258.207031 235.910156 257.8125 235.910156 L 240.765625 235.910156 C 240.371094 235.910156 239.992188 235.835938 239.625 235.683594 C 239.261719 235.53125 238.9375 235.316406 238.65625 235.035156 C 238.378906 234.753906 238.164062 234.433594 238.011719 234.066406 C 237.859375 233.699219 237.785156 233.316406 237.785156 232.921875 L 237.785156 221.949219 C 237.785156 221.554688 237.859375 221.171875 238.011719 220.808594 C 238.164062 220.441406 238.378906 220.121094 238.660156 219.839844 C 238.9375 219.5625 239.261719 219.347656 239.625 219.199219 C 239.992188 219.046875 240.371094 218.972656 240.765625 218.976562 L 257.8125 218.976562 C 258.207031 218.972656 258.585938 219.046875 258.953125 219.199219 C 259.316406 219.347656 259.640625 219.5625 259.921875 219.839844 C 260.199219 220.121094 260.417969 220.441406 260.566406 220.808594 C 260.71875 221.171875 260.796875 221.554688 260.796875 221.949219 Z M 290.25 221.949219 L 290.25 232.921875 C 290.25 233.316406 290.175781 233.695312 290.023438 234.0625 C 289.875 234.425781 289.660156 234.75 289.382812 235.03125 C 289.105469 235.308594 288.785156 235.527344 288.421875 235.679688 C 288.058594 235.832031 287.679688 235.910156 287.285156 235.910156 L 270.238281 235.910156 C 269.84375 235.910156 269.464844 235.832031 269.101562 235.679688 C 268.738281 235.527344 268.417969 235.308594 268.140625 235.03125 C 267.863281 234.75 267.648438 234.425781 267.5 234.0625 C 267.347656 233.695312 267.273438 233.316406 267.273438 232.921875 L 267.273438 221.949219 C 267.273438 221.554688 267.347656 221.175781 267.5 220.8125 C 267.648438 220.449219 267.863281 220.125 268.140625 219.847656 C 268.417969 219.570312 268.738281 219.355469 269.105469 219.203125 C 269.46875 219.050781 269.84375 218.976562 270.238281 218.976562 L 287.285156 218.976562 C 287.671875 218.984375 288.042969 219.066406 288.398438 219.222656 C 288.753906 219.378906 289.066406 219.59375 289.335938 219.871094 C 289.609375 220.148438 289.816406 220.46875 289.960938 220.828125 C 290.109375 221.1875 290.183594 221.5625 290.183594 221.949219 Z M 319.722656 221.949219 L 319.722656 232.921875 C 319.722656 233.316406 319.644531 233.695312 319.496094 234.0625 C 319.347656 234.425781 319.132812 234.75 318.855469 235.03125 C 318.574219 235.308594 318.253906 235.527344 317.890625 235.679688 C 317.527344 235.832031 317.148438 235.910156 316.753906 235.910156 L 299.710938 235.910156 C 299.304688 235.929688 298.910156 235.863281 298.53125 235.71875 C 298.148438 235.574219 297.8125 235.363281 297.515625 235.078125 C 297.222656 234.796875 296.996094 234.46875 296.835938 234.09375 C 296.675781 233.71875 296.59375 233.328125 296.589844 232.921875 L 296.589844 221.949219 C 296.59375 221.554688 296.671875 221.175781 296.824219 220.8125 C 296.976562 220.445312 297.191406 220.125 297.46875 219.847656 C 297.75 219.566406 298.070312 219.351562 298.4375 219.203125 C 298.800781 219.050781 299.179688 218.976562 299.574219 218.976562 L 316.621094 218.976562 C 317.019531 218.96875 317.402344 219.035156 317.773438 219.183594 C 318.148438 219.328125 318.476562 219.542969 318.761719 219.824219 C 319.046875 220.101562 319.265625 220.425781 319.421875 220.796875 C 319.574219 221.164062 319.652344 221.550781 319.652344 221.949219 Z M 349.191406 221.949219 L 349.191406 232.921875 C 349.191406 233.316406 349.117188 233.699219 348.964844 234.066406 C 348.816406 234.433594 348.597656 234.753906 348.320312 235.035156 C 348.039062 235.316406 347.71875 235.53125 347.351562 235.683594 C 346.984375 235.835938 346.605469 235.910156 346.210938 235.910156 L 329.164062 235.910156 C 328.769531 235.910156 328.390625 235.835938 328.023438 235.683594 C 327.65625 235.53125 327.335938 235.316406 327.054688 235.035156 C 326.777344 234.753906 326.558594 234.433594 326.410156 234.066406 C 326.257812 233.699219 326.183594 233.316406 326.183594 232.921875 L 326.183594 221.949219 C 326.183594 221.554688 326.257812 221.171875 326.410156 220.808594 C 326.5625 220.441406 326.777344 220.121094 327.054688 219.839844 C 327.335938 219.5625 327.660156 219.347656 328.023438 219.199219 C 328.390625 219.046875 328.769531 218.972656 329.164062 218.976562 L 346.210938 218.976562 C 346.597656 218.984375 346.972656 219.0625 347.328125 219.21875 C 347.6875 219.371094 348 219.585938 348.273438 219.867188 C 348.546875 220.144531 348.757812 220.464844 348.902344 220.824219 C 349.050781 221.183594 349.125 221.558594 349.125 221.949219 Z M 349.191406 221.949219 " fill-opacity="1" fill-rule="nonzero"/></g></svg>