<svg xmlns="http://www.w3.org/2000/svg" xmlns:xlink="http://www.w3.org/1999/xlink" width="500" zoomAndPan="magnify" viewBox="0 0 375 374.999991" height="500" preserveAspectRatio="xMidYMid meet" version="1.0"><defs><clipPath id="80fa2b7a01"><path d="M 64.027344 23.414062 L 310.777344 23.414062 L 310.777344 351.914062 L 64.027344 351.914062 Z M 64.027344 23.414062 " clip-rule="nonzero"/></clipPath></defs><rect x="-37.5" width="450" fill="#ffffff" y="-37.499999" height="449.999989" fill-opacity="1"/><rect x="-37.5" width="450" fill="#ffffff" y="-37.499999" height="449.999989" fill-opacity="1"/><g clip-path="url(#80fa2b7a01)"><path fill="#000000" d="M 159.8125 24.0625 L 134.019531 24.296875 L 131.226562 25.71875 C 127.914062 27.425781 125.167969 30.699219 124.128906 34.207031 C 123.75 35.535156 123.417969 38.425781 123.417969 40.703125 L 123.417969 44.875 L 99.613281 45.015625 L 75.855469 45.160156 L 72.6875 46.722656 C 68.949219 48.523438 66.628906 51.039062 65.113281 54.832031 L 64.027344 57.484375 L 64.027344 198.292969 C 64.027344 329.996094 64.074219 339.238281 64.832031 341.136719 C 66.15625 344.359375 68.332031 347.15625 70.746094 348.722656 C 75.667969 351.898438 67.386719 351.707031 188.535156 351.566406 L 298.28125 351.425781 L 300.933594 350.332031 C 304.246094 349.007812 307.746094 345.640625 309.355469 342.179688 L 310.585938 339.570312 L 310.730469 199.238281 C 310.824219 59.617188 310.824219 58.90625 309.875 55.730469 C 308.597656 51.511719 305.285156 47.8125 301.453125 46.25 C 298.804688 45.160156 298.519531 45.160156 274.953125 45.015625 C 252.804688 44.875 251.148438 44.828125 251.382812 44.066406 C 251.527344 43.640625 251.476562 41.222656 251.242188 38.710938 C 250.816406 33.496094 249.773438 30.839844 247.03125 28.136719 C 244.570312 25.625 242.296875 24.582031 238.226562 24.0625 C 234.679688 23.632812 205.335938 23.585938 159.8125 24.0625 Z M 234.300781 34.015625 C 238.273438 34.015625 238.558594 34.066406 239.882812 35.390625 L 241.257812 36.765625 L 241.257812 64.359375 L 133.355469 64.359375 L 133.355469 50.941406 C 133.355469 38.472656 133.402344 37.476562 134.304688 36.007812 C 134.824219 35.203125 135.296875 34.445312 135.34375 34.398438 C 135.628906 34.160156 195.683594 33.78125 212.625 33.875 C 222.277344 33.96875 232.027344 34.015625 234.300781 34.015625 Z M 123.417969 62.699219 C 123.417969 70.996094 123.796875 72.75 125.738281 73.839844 C 126.351562 74.171875 146.703125 74.316406 187.542969 74.316406 L 248.449219 74.316406 L 249.820312 72.941406 L 251.195312 71.566406 L 251.195312 55.492188 L 266.339844 55.160156 C 282.855469 54.78125 296.71875 55.113281 298.375 55.921875 C 298.945312 56.203125 299.75 57.152344 300.175781 57.960938 C 300.789062 59.382812 300.886719 74.03125 300.886719 197.675781 C 300.886719 290.835938 300.742188 336.347656 300.410156 337.53125 C 300.128906 338.480469 299.371094 339.714844 298.660156 340.28125 L 297.429688 341.230469 L 77.511719 341.230469 L 76 339.855469 L 74.4375 338.480469 L 74.296875 198.90625 C 74.199219 97.355469 74.34375 59.050781 74.722656 58.101562 C 75.953125 55.160156 74.675781 55.257812 107.46875 54.972656 L 123.417969 54.832031 Z M 123.417969 62.699219 " fill-opacity="1" fill-rule="nonzero"/></g><path fill="#000000" d="M 147.222656 128.695312 C 146.085938 129.972656 144.382812 131.964844 143.390625 133.199219 L 141.636719 135.425781 L 124.742188 135.472656 C 108.464844 135.472656 107.753906 135.519531 106.855469 136.421875 C 105.957031 137.324219 105.90625 137.988281 105.90625 155.8125 C 105.90625 172.644531 106.003906 174.347656 106.710938 175.25 C 107.5625 176.292969 107.753906 176.292969 126.871094 176.386719 C 145.519531 176.484375 146.230469 176.433594 146.890625 175.582031 C 147.410156 174.824219 147.554688 171.835938 147.554688 159.367188 L 147.554688 144.148438 L 151.527344 139.410156 C 153.660156 136.847656 155.695312 134.242188 156.023438 133.71875 C 156.78125 132.25 156.6875 130.402344 155.742188 128.835938 C 154.792969 127.222656 153.28125 126.464844 151.007812 126.464844 C 149.589844 126.464844 148.972656 126.84375 147.222656 128.695312 Z M 135.863281 142.207031 C 135.34375 142.820312 132.789062 145.855469 130.089844 149.03125 L 125.265625 154.722656 L 121.335938 150.835938 C 116.980469 146.519531 115.421875 145.808594 113.054688 147.089844 L 111.585938 147.847656 L 111.585938 141.164062 L 136.8125 141.164062 Z M 141.875 161.074219 L 141.875 171.03125 L 111.585938 171.03125 L 111.585938 155.148438 L 117.40625 161.167969 C 123.464844 167.523438 124.695312 168.28125 127.15625 167.238281 C 128.007812 166.90625 131.132812 163.585938 135.011719 158.894531 C 138.5625 154.628906 141.542969 151.117188 141.683594 151.117188 C 141.78125 151.117188 141.875 155.574219 141.875 161.074219 Z M 141.875 161.074219 " fill-opacity="1" fill-rule="nonzero"/><path fill="#000000" d="M 171.40625 156.996094 C 170.269531 158.136719 169.796875 159.035156 169.796875 160.078125 C 169.796875 161.929688 170.933594 164.203125 172.113281 164.867188 C 172.730469 165.199219 189.863281 165.339844 223.746094 165.339844 L 274.476562 165.339844 L 275.851562 163.96875 C 277.789062 162.023438 277.789062 159.320312 275.851562 157.1875 L 274.476562 155.621094 L 223.746094 155.480469 L 173.015625 155.386719 Z M 171.40625 156.996094 " fill-opacity="1" fill-rule="nonzero"/><path fill="#000000" d="M 149.117188 182.03125 C 148.546875 182.3125 146.558594 184.304688 144.714844 186.488281 L 141.355469 190.46875 L 107.328125 190.46875 L 106.617188 191.605469 C 105.957031 192.554688 105.90625 195.113281 106.003906 211.328125 C 106.144531 229.058594 106.191406 229.914062 107.042969 230.578125 C 107.800781 231.144531 111.304688 231.242188 126.96875 231.242188 C 144.808594 231.242188 146.039062 231.195312 146.75 230.386719 C 147.460938 229.582031 147.554688 227.78125 147.554688 214.222656 L 147.554688 198.953125 L 151.578125 194.070312 C 153.753906 191.371094 155.789062 188.574219 156.070312 187.859375 C 157.539062 184.019531 152.949219 180.179688 149.117188 182.03125 Z M 136.667969 195.921875 C 136.667969 196.109375 129.902344 204.21875 125.5 209.386719 C 125.359375 209.527344 123.464844 207.773438 121.148438 205.546875 C 116.886719 201.371094 115.371094 200.566406 113.242188 201.371094 C 112.582031 201.609375 111.917969 201.847656 111.777344 201.847656 C 111.683594 201.847656 111.585938 200.472656 111.585938 198.765625 L 111.585938 195.683594 L 124.128906 195.683594 C 131.039062 195.683594 136.667969 195.777344 136.667969 195.921875 Z M 141.875 215.597656 L 141.875 225.550781 L 111.585938 225.550781 L 111.585938 210.191406 L 117.644531 216.210938 C 126.304688 224.746094 125.832031 224.839844 135.960938 212.5625 C 139.082031 208.769531 141.683594 205.640625 141.78125 205.640625 C 141.828125 205.640625 141.875 210.097656 141.875 215.597656 Z M 141.875 215.597656 " fill-opacity="1" fill-rule="nonzero"/><path fill="#000000" d="M 172.019531 199.050781 C 170.882812 199.714844 169.796875 201.988281 169.796875 203.695312 C 169.796875 204.644531 170.316406 205.6875 171.167969 206.683594 L 172.539062 208.246094 L 222.894531 208.390625 C 271.210938 208.484375 273.246094 208.4375 274.855469 207.632812 C 277.839844 206.019531 278.214844 201.941406 275.566406 199.570312 L 274.335938 198.527344 L 223.605469 198.527344 C 190.003906 198.574219 172.589844 198.71875 172.019531 199.050781 Z M 172.019531 199.050781 " fill-opacity="1" fill-rule="nonzero"/><path fill="#000000" d="M 148.5 242.429688 C 147.835938 242.855469 146.703125 243.992188 145.945312 245.035156 L 144.523438 246.886719 L 124.980469 246.886719 C 104.109375 246.886719 103.351562 246.980469 102.121094 249.210938 C 101.839844 249.824219 101.648438 257.789062 101.648438 271.539062 L 101.648438 292.96875 L 103.019531 294.34375 L 104.394531 295.71875 L 147.648438 295.71875 L 149.019531 294.34375 L 150.394531 292.96875 L 150.488281 276.421875 C 150.535156 267.367188 150.628906 258.832031 150.628906 257.503906 C 150.675781 255.324219 150.914062 254.804688 152.855469 252.527344 C 156.308594 248.402344 156.6875 247.125 155.316406 244.46875 C 154.605469 243.046875 152.191406 241.671875 150.535156 241.671875 C 150.0625 241.671875 149.164062 242.050781 148.5 242.429688 Z M 136.195312 257.125 C 136.195312 257.269531 134.871094 258.929688 133.261719 260.824219 C 131.605469 262.722656 128.8125 265.992188 127.015625 268.171875 L 123.703125 272.058594 L 120.152344 268.503906 C 116.035156 264.476562 114.898438 263.765625 113.054688 264.191406 C 111.777344 264.476562 111.730469 264.378906 111.398438 262.246094 C 111.253906 261.015625 111.113281 259.308594 111.113281 258.453125 L 111.113281 256.84375 L 123.65625 256.84375 C 130.5625 256.84375 136.195312 256.984375 136.195312 257.125 Z M 140.691406 279.457031 L 140.359375 285.761719 L 111.113281 285.761719 L 111.113281 282.964844 C 111.113281 281.449219 111.253906 278.886719 111.398438 277.277344 L 111.730469 274.335938 L 116.792969 279.363281 C 121.382812 283.867188 122 284.339844 123.609375 284.339844 C 124.601562 284.339844 125.785156 284.148438 126.257812 283.867188 C 126.730469 283.628906 130.1875 279.835938 133.925781 275.472656 L 140.691406 267.554688 L 140.832031 270.355469 C 140.929688 271.917969 140.882812 276.042969 140.691406 279.457031 Z M 140.691406 279.457031 " fill-opacity="1" fill-rule="nonzero"/><path fill="#000000" d="M 171.40625 269.832031 C 170.269531 270.96875 169.796875 271.871094 169.796875 272.914062 C 169.796875 274.953125 170.882812 276.945312 172.398438 277.605469 C 173.34375 278.035156 185.980469 278.175781 224.03125 278.175781 L 274.476562 278.175781 L 275.851562 276.800781 C 278.074219 274.527344 277.601562 270.636719 274.855469 269.027344 C 273.625 268.269531 269.320312 268.21875 223.273438 268.21875 L 173.015625 268.21875 Z M 171.40625 269.832031 " fill-opacity="1" fill-rule="nonzero"/></svg>