<svg xmlns="http://www.w3.org/2000/svg" xmlns:xlink="http://www.w3.org/1999/xlink" width="500" zoomAndPan="magnify" viewBox="0 0 375 374.999991" height="500" preserveAspectRatio="xMidYMid meet" version="1.0"><defs><clipPath id="6b29c807e0"><path d="M 11.820312 65.160156 L 362.820312 65.160156 L 362.820312 309.660156 L 11.820312 309.660156 Z M 11.820312 65.160156 " clip-rule="nonzero"/></clipPath></defs><rect x="-37.5" width="450" fill="#ffffff" y="-37.499999" height="449.999989" fill-opacity="1"/><rect x="-37.5" width="450" fill="#ffffff" y="-37.499999" height="449.999989" fill-opacity="1"/><g clip-path="url(#6b29c807e0)"><path fill="#000000" d="M 73.890625 235.613281 L 69.429688 235.613281 C 37.617188 235.613281 11.828125 209.824219 11.828125 178.011719 C 11.828125 146.199219 37.617188 120.410156 69.429688 120.410156 L 114.191406 120.410156 C 114.269531 120.410156 114.34375 120.414062 114.421875 120.414062 C 114.421875 120.414062 145.816406 121.367188 183.414062 103.527344 C 199.160156 96.054688 209.058594 86.929688 218.414062 79.734375 C 229.292969 71.359375 239.578125 65.363281 255.191406 65.363281 L 255.742188 65.363281 C 263.398438 65.425781 270.929688 69.671875 277.414062 78.03125 C 285.328125 88.230469 292.007812 105.054688 296.101562 125.914062 C 299.007812 140.71875 300.660156 157.59375 300.660156 175.5 C 300.660156 195.539062 298.589844 214.289062 295.011719 230.289062 C 290.714844 249.492188 284.144531 264.824219 276.511719 274.101562 C 270.238281 281.722656 263.054688 285.578125 255.742188 285.636719 L 255.460938 285.636719 C 255.296875 285.636719 255.132812 285.640625 254.96875 285.636719 C 240.957031 285.175781 230.773438 277.425781 220.914062 268 C 212.890625 260.328125 205.085938 251.453125 194.058594 246.902344 C 172.5 238.015625 144.324219 235.882812 129.851562 235.390625 C 134.101562 243.550781 140.015625 255.4375 144.164062 265.972656 C 147.636719 274.789062 149.742188 282.832031 149.449219 287.628906 C 148.292969 306.46875 127.003906 314.246094 111.296875 306.875 C 109.609375 306.082031 107.695312 304.644531 105.757812 302.492188 C 102.6875 299.078125 99.171875 293.449219 95.671875 286.753906 C 85.851562 267.964844 75.640625 240.394531 73.890625 235.613281 Z M 255.675781 78.996094 L 255.484375 78.996094 C 251.457031 79.035156 247.929688 81.964844 244.511719 86.359375 C 237.558594 95.308594 232.007812 110.210938 228.410156 128.539062 C 227.800781 131.640625 227.25 134.839844 226.761719 138.125 C 248.21875 138.777344 265.4375 156.402344 265.4375 178.011719 C 265.4375 199.355469 248.644531 216.808594 227.5625 217.871094 C 228.125 221.113281 228.746094 224.265625 229.425781 227.3125 C 233.15625 243.984375 238.539062 257.421875 245.171875 265.464844 C 248.394531 269.375 251.726562 271.96875 255.484375 272.007812 L 255.675781 272.007812 C 259.433594 271.957031 262.761719 269.355469 265.984375 265.441406 C 272.605469 257.394531 277.984375 243.964844 281.707031 227.3125 C 285.09375 212.179688 287.03125 194.449219 287.03125 175.5 C 287.03125 158.542969 285.476562 142.558594 282.726562 128.539062 C 279.132812 110.230469 273.589844 95.339844 266.644531 86.386719 C 263.230469 81.984375 259.703125 79.050781 255.675781 78.996094 Z M 124.421875 225.277344 C 124.15625 224.828125 123.816406 224.367188 123.363281 223.929688 L 123.480469 224.058594 C 123.515625 224.09375 123.550781 224.128906 123.582031 224.164062 C 123.851562 224.453125 124.09375 224.765625 124.308594 225.09375 C 124.347656 225.15625 124.382812 225.214844 124.421875 225.277344 Z M 88.429688 235.613281 C 92.03125 245.183594 100.011719 265.632812 107.75 280.4375 C 110.25 285.222656 112.699219 289.390625 114.964844 292.269531 C 115.785156 293.3125 116.394531 294.210938 117.089844 294.535156 C 124.546875 298.035156 135.292969 295.738281 135.84375 286.792969 C 136.058594 283.261719 134.039062 277.460938 131.480469 270.96875 C 126.285156 257.78125 118.203125 242.378906 114.546875 235.613281 Z M 225.855469 91.207031 C 216.113281 98.78125 205.59375 108.089844 189.257812 115.839844 C 156.070312 131.589844 127.277344 133.765625 117.507812 134.023438 C 107.976562 146.546875 102.542969 160.605469 102.542969 175.5 C 102.542969 192.234375 109.398438 207.90625 121.21875 221.535156 C 132.632812 220.933594 169.089844 221.863281 199.253906 234.300781 C 208.035156 237.921875 215.164062 243.765625 221.78125 249.941406 C 219.625 243.996094 217.71875 237.40625 216.125 230.289062 C 214.808594 224.40625 213.699219 218.152344 212.816406 211.605469 C 212.804688 211.515625 212.792969 211.425781 212.78125 211.335938 C 211.289062 200.140625 210.472656 188.074219 210.472656 175.5 C 210.472656 164.886719 211.054688 154.632812 212.132812 144.957031 C 212.140625 144.867188 212.152344 144.777344 212.164062 144.6875 C 212.902344 138.140625 213.867188 131.859375 215.035156 125.914062 C 217.683594 112.425781 221.410156 100.621094 225.855469 91.207031 Z M 225.152344 151.738281 C 224.46875 159.359375 224.105469 167.316406 224.105469 175.5 C 224.105469 185.503906 224.644531 195.167969 225.652344 204.289062 C 240.097656 204.222656 251.804688 192.472656 251.804688 178.011719 C 251.804688 163.511719 240.03125 151.738281 225.527344 151.738281 C 225.402344 151.738281 225.277344 151.738281 225.152344 151.738281 Z M 101 134.042969 L 90.378906 134.042969 C 80.859375 146.558594 75.429688 160.613281 75.429688 175.5 C 75.429688 192.417969 82.433594 208.25 94.492188 221.984375 L 104.289062 221.984375 C 94.375 207.816406 88.914062 192.054688 88.914062 175.5 C 88.914062 160.875 93.171875 146.875 101 134.042969 Z M 73.886719 134.042969 L 69.429688 134.042969 C 45.144531 134.042969 25.460938 153.730469 25.460938 178.011719 C 25.460938 202.296875 45.144531 221.984375 69.429688 221.984375 L 77.175781 221.984375 C 67.257812 207.816406 61.796875 192.054688 61.796875 175.5 C 61.796875 160.875 66.058594 146.875 73.886719 134.042969 Z M 337.984375 93.726562 C 341.28125 91.917969 345.425781 93.128906 347.234375 96.425781 C 349.042969 99.726562 347.835938 103.871094 344.535156 105.679688 L 314.996094 121.875 C 311.699219 123.683594 307.554688 122.472656 305.746094 119.171875 C 303.9375 115.875 305.144531 111.730469 308.445312 109.921875 Z M 355.933594 152.433594 C 359.6875 152.203125 362.925781 155.058594 363.160156 158.816406 C 363.390625 162.570312 360.535156 165.804688 356.777344 166.039062 L 321.207031 168.25 C 317.453125 168.484375 314.214844 165.625 313.980469 161.871094 C 313.75 158.117188 316.609375 154.878906 320.363281 154.644531 Z M 352.527344 204.636719 C 356.097656 205.824219 358.03125 209.6875 356.84375 213.253906 C 355.660156 216.824219 351.796875 218.757812 348.226562 217.574219 L 318.632812 207.734375 C 315.066406 206.546875 313.128906 202.6875 314.316406 199.117188 C 315.503906 195.546875 319.363281 193.613281 322.933594 194.800781 Z M 352.527344 204.636719 " fill-opacity="1" fill-rule="evenodd"/></g></svg>