<svg xmlns="http://www.w3.org/2000/svg" xmlns:xlink="http://www.w3.org/1999/xlink" width="500" zoomAndPan="magnify" viewBox="0 0 375 374.999991" height="500" preserveAspectRatio="xMidYMid meet" version="1.0"><defs><clipPath id="aef83d2150"><path d="M 85.242188 34.304688 L 289.992188 34.304688 L 289.992188 341 L 85.242188 341 Z M 85.242188 34.304688 " clip-rule="nonzero"/></clipPath></defs><g clip-path="url(#aef83d2150)"><path fill="#191919" d="M 223.488281 236.464844 C 224.285156 236.460938 225.078125 236.421875 225.867188 236.347656 C 226.65625 236.269531 227.441406 236.15625 228.222656 236.007812 C 229.003906 235.855469 229.773438 235.667969 230.535156 235.445312 C 231.296875 235.222656 232.046875 234.960938 232.785156 234.667969 C 233.523438 234.371094 234.246094 234.042969 234.953125 233.679688 C 235.65625 233.316406 236.34375 232.921875 237.015625 232.492188 C 237.683594 232.0625 238.332031 231.605469 238.957031 231.117188 C 239.582031 230.625 240.183594 230.109375 240.757812 229.5625 C 241.335938 229.015625 241.882812 228.441406 242.40625 227.84375 C 242.929688 227.246094 243.421875 226.621094 243.882812 225.976562 C 244.347656 225.332031 244.777344 224.667969 245.179688 223.980469 C 245.578125 223.292969 245.945312 222.589844 246.277344 221.867188 C 246.609375 221.148438 246.910156 220.414062 247.171875 219.664062 C 247.4375 218.914062 247.664062 218.15625 247.855469 217.382812 C 248.046875 216.613281 248.203125 215.835938 248.320312 215.050781 C 248.4375 214.261719 248.519531 213.472656 248.5625 212.679688 L 273.527344 219.371094 C 274.660156 219.671875 275.816406 219.824219 276.992188 219.828125 C 277.851562 219.820312 278.699219 219.726562 279.539062 219.550781 C 280.378906 219.375 281.195312 219.121094 281.984375 218.789062 C 282.773438 218.453125 283.523438 218.046875 284.234375 217.5625 C 284.945312 217.082031 285.601562 216.539062 286.207031 215.929688 C 286.808594 215.320312 287.347656 214.65625 287.824219 213.941406 C 288.296875 213.226562 288.699219 212.472656 289.027344 211.679688 C 289.355469 210.886719 289.601562 210.070312 289.769531 209.226562 C 289.9375 208.386719 290.019531 207.535156 290.023438 206.679688 L 290.023438 142.558594 C 290.023438 142.054688 289.992188 141.554688 289.9375 141.058594 C 289.878906 140.558594 289.792969 140.066406 289.679688 139.578125 C 289.566406 139.089844 289.425781 138.609375 289.257812 138.136719 C 289.089844 137.664062 288.894531 137.203125 288.671875 136.753906 C 288.449219 136.304688 288.203125 135.871094 287.933594 135.449219 C 287.660156 135.027344 287.367188 134.621094 287.046875 134.234375 C 286.730469 133.847656 286.390625 133.480469 286.03125 133.128906 C 285.671875 132.78125 285.292969 132.453125 284.894531 132.148438 C 284.496094 131.84375 284.082031 131.5625 283.652344 131.304688 C 283.222656 131.046875 282.777344 130.816406 282.320312 130.609375 C 281.863281 130.402344 281.398438 130.222656 280.921875 130.066406 C 280.445312 129.914062 279.957031 129.789062 279.46875 129.691406 C 278.976562 129.59375 278.480469 129.523438 277.980469 129.484375 C 277.480469 129.441406 276.980469 129.429688 276.480469 129.449219 C 275.976562 129.464844 275.480469 129.507812 274.984375 129.582031 C 274.488281 129.65625 273.996094 129.757812 273.511719 129.890625 L 248.5625 136.574219 C 248.484375 135.128906 248.28125 133.699219 247.957031 132.289062 C 247.632812 130.875 247.1875 129.503906 246.625 128.167969 C 246.0625 126.835938 245.390625 125.558594 244.605469 124.339844 C 243.824219 123.121094 242.941406 121.980469 241.960938 120.914062 C 240.980469 119.847656 239.917969 118.875 238.769531 117.992188 C 237.621094 117.109375 236.402344 116.332031 235.121094 115.660156 C 233.835938 114.988281 232.507812 114.429688 231.128906 113.988281 C 229.75 113.546875 228.339844 113.226562 226.90625 113.027344 C 228.128906 112.132812 229.300781 111.175781 230.421875 110.15625 C 231.542969 109.136719 232.609375 108.066406 233.617188 106.933594 C 234.628906 105.804688 235.574219 104.628906 236.460938 103.398438 C 237.347656 102.171875 238.167969 100.898438 238.921875 99.585938 C 239.675781 98.269531 240.359375 96.921875 240.96875 95.535156 C 241.582031 94.148438 242.121094 92.738281 242.585938 91.296875 C 243.050781 89.855469 243.441406 88.390625 243.75 86.910156 C 244.0625 85.425781 244.296875 83.933594 244.453125 82.425781 C 244.609375 80.917969 244.6875 79.410156 244.6875 77.894531 C 244.683594 76.378906 244.605469 74.867188 244.445312 73.363281 C 244.285156 71.855469 244.046875 70.363281 243.730469 68.878906 C 243.417969 67.398438 243.023438 65.9375 242.558594 64.496094 C 242.089844 63.054688 241.546875 61.644531 240.933594 60.261719 C 240.316406 58.875 239.628906 57.527344 238.875 56.214844 C 238.117188 54.902344 237.296875 53.632812 236.40625 52.40625 C 235.515625 51.179688 234.566406 50.003906 233.554688 48.875 C 232.542969 47.75 231.476562 46.679688 230.351562 45.660156 C 229.226562 44.644531 228.054688 43.691406 226.832031 42.796875 C 225.609375 41.90625 224.339844 41.078125 223.03125 40.316406 C 221.722656 39.558594 220.375 38.867188 218.992188 38.246094 C 217.613281 37.625 216.203125 37.078125 214.761719 36.605469 C 213.324219 36.132812 211.863281 35.734375 210.382812 35.414062 C 208.902344 35.09375 207.410156 34.851562 205.902344 34.6875 C 204.398438 34.523438 202.886719 34.4375 201.371094 34.429688 C 199.859375 34.421875 198.347656 34.496094 196.839844 34.644531 C 195.332031 34.796875 193.835938 35.027344 192.355469 35.332031 C 190.871094 35.640625 189.40625 36.023438 187.964844 36.484375 C 186.519531 36.941406 185.105469 37.476562 183.71875 38.085938 C 182.332031 38.691406 180.976562 39.371094 179.660156 40.121094 C 178.34375 40.867188 177.070312 41.683594 175.839844 42.566406 C 174.609375 43.449219 173.425781 44.390625 172.292969 45.394531 C 171.160156 46.402344 170.082031 47.464844 169.058594 48.582031 C 168.039062 49.699219 167.078125 50.867188 166.175781 52.085938 C 165.277344 53.304688 164.441406 54.566406 163.675781 55.871094 C 162.90625 57.175781 162.207031 58.519531 161.578125 59.898438 C 160.949219 61.277344 160.394531 62.683594 159.914062 64.121094 C 159.433594 65.554688 159.027344 67.011719 158.699219 68.492188 C 158.371094 69.96875 158.121094 71.460938 157.945312 72.964844 C 157.773438 74.472656 157.679688 75.980469 157.664062 77.496094 C 157.648438 79.011719 157.710938 80.523438 157.855469 82.03125 C 157.996094 83.539062 158.21875 85.035156 158.515625 86.519531 C 158.8125 88.003906 159.1875 89.46875 159.640625 90.914062 C 160.09375 92.363281 160.617188 93.78125 161.21875 95.171875 C 161.816406 96.5625 162.488281 97.917969 163.230469 99.238281 C 163.972656 100.558594 164.78125 101.839844 165.65625 103.074219 C 166.53125 104.3125 167.464844 105.5 168.464844 106.636719 C 169.464844 107.777344 170.519531 108.859375 171.632812 109.886719 C 172.746094 110.917969 173.90625 111.882812 175.121094 112.789062 L 144.292969 112.789062 C 145.113281 112.039062 145.890625 111.246094 146.628906 110.414062 C 147.371094 109.582031 148.066406 108.714844 148.714844 107.8125 C 149.367188 106.910156 149.972656 105.976562 150.527344 105.015625 C 151.082031 104.050781 151.589844 103.0625 152.046875 102.046875 C 152.5 101.03125 152.90625 99.996094 153.253906 98.941406 C 153.605469 97.882812 153.902344 96.8125 154.144531 95.726562 C 154.386719 94.640625 154.574219 93.542969 154.703125 92.441406 C 154.835938 91.335938 154.910156 90.226562 154.925781 89.113281 C 154.945312 88 154.90625 86.890625 154.8125 85.78125 C 154.714844 84.671875 154.566406 83.570312 154.359375 82.476562 C 154.152344 81.382812 153.890625 80.304688 153.574219 79.238281 C 153.257812 78.171875 152.890625 77.121094 152.464844 76.09375 C 152.042969 75.0625 151.570312 74.058594 151.046875 73.078125 C 150.519531 72.097656 149.945312 71.144531 149.324219 70.222656 C 148.703125 69.296875 148.039062 68.410156 147.324219 67.554688 C 146.613281 66.699219 145.859375 65.882812 145.066406 65.101562 C 144.269531 64.324219 143.4375 63.585938 142.570312 62.894531 C 141.699219 62.199219 140.796875 61.550781 139.859375 60.949219 C 138.925781 60.34375 137.960938 59.792969 136.96875 59.289062 C 135.976562 58.78125 134.964844 58.328125 133.925781 57.925781 C 132.886719 57.527344 131.832031 57.179688 130.757812 56.882812 C 129.6875 56.589844 128.601562 56.351562 127.503906 56.164062 C 126.40625 55.980469 125.300781 55.851562 124.191406 55.78125 C 123.082031 55.710938 121.96875 55.691406 120.859375 55.734375 C 119.746094 55.773438 118.640625 55.871094 117.535156 56.023438 C 116.433594 56.179688 115.34375 56.386719 114.261719 56.652344 C 113.179688 56.914062 112.117188 57.234375 111.066406 57.605469 C 110.019531 57.976562 108.992188 58.402344 107.988281 58.878906 C 106.980469 59.355469 106.003906 59.882812 105.050781 60.457031 C 104.097656 61.03125 103.175781 61.65625 102.289062 62.324219 C 101.398438 62.996094 100.546875 63.707031 99.730469 64.464844 C 98.914062 65.21875 98.136719 66.015625 97.402344 66.851562 C 96.667969 67.683594 95.976562 68.554688 95.328125 69.460938 C 94.679688 70.363281 94.082031 71.300781 93.527344 72.265625 C 92.976562 73.230469 92.472656 74.222656 92.023438 75.242188 C 91.570312 76.257812 91.171875 77.296875 90.824219 78.351562 C 90.480469 79.410156 90.1875 80.480469 89.949219 81.570312 C 89.710938 82.65625 89.53125 83.753906 89.40625 84.859375 C 89.277344 85.964844 89.210938 87.074219 89.195312 88.1875 C 89.183594 89.296875 89.226562 90.410156 89.324219 91.515625 C 89.425781 92.625 89.582031 93.726562 89.792969 94.820312 C 90.003906 95.910156 90.269531 96.988281 90.589844 98.054688 C 90.910156 99.121094 91.285156 100.167969 91.710938 101.195312 C 92.136719 102.222656 92.617188 103.226562 93.144531 104.203125 C 93.675781 105.183594 94.25 106.132812 94.878906 107.054688 C 95.503906 107.972656 96.171875 108.859375 96.886719 109.710938 C 97.605469 110.566406 98.359375 111.378906 99.160156 112.15625 C 99.957031 112.929688 100.792969 113.664062 101.664062 114.351562 C 100.46875 114.796875 99.316406 115.328125 98.203125 115.949219 C 97.085938 116.566406 96.027344 117.265625 95.019531 118.046875 C 94.011719 118.828125 93.070312 119.679688 92.191406 120.605469 C 91.3125 121.527344 90.511719 122.511719 89.78125 123.558594 C 89.054688 124.605469 88.410156 125.699219 87.847656 126.84375 C 87.285156 127.988281 86.8125 129.167969 86.429688 130.382812 C 86.050781 131.601562 85.761719 132.835938 85.566406 134.097656 C 85.371094 135.355469 85.273438 136.625 85.273438 137.898438 L 85.273438 211.335938 C 85.273438 212.160156 85.3125 212.980469 85.394531 213.796875 C 85.476562 214.617188 85.597656 215.429688 85.757812 216.234375 C 85.917969 217.042969 86.117188 217.839844 86.359375 218.625 C 86.597656 219.414062 86.875 220.1875 87.1875 220.945312 C 87.503906 221.707031 87.855469 222.449219 88.242188 223.171875 C 88.628906 223.898438 89.050781 224.601562 89.507812 225.285156 C 89.964844 225.96875 90.457031 226.628906 90.976562 227.265625 C 91.5 227.902344 92.050781 228.511719 92.632812 229.09375 C 93.214844 229.675781 93.820312 230.226562 94.457031 230.75 C 95.09375 231.269531 95.753906 231.761719 96.4375 232.21875 C 97.117188 232.675781 97.824219 233.097656 98.546875 233.484375 C 99.273438 233.875 100.015625 234.226562 100.773438 234.542969 C 101.535156 234.855469 102.308594 235.132812 103.09375 235.375 C 103.882812 235.613281 104.679688 235.8125 105.484375 235.976562 C 106.292969 236.136719 107.105469 236.257812 107.921875 236.339844 C 108.742188 236.421875 109.5625 236.460938 110.382812 236.464844 L 130.410156 236.464844 C 130.976562 241.265625 132.4375 245.777344 134.796875 250 L 97.742188 314.167969 C 97.453125 314.675781 97.191406 315.191406 96.953125 315.722656 C 96.71875 316.253906 96.507812 316.792969 96.324219 317.34375 C 96.140625 317.894531 95.984375 318.453125 95.855469 319.019531 C 95.726562 319.585938 95.625 320.160156 95.550781 320.734375 C 95.476562 321.3125 95.433594 321.890625 95.417969 322.46875 C 95.398438 323.050781 95.414062 323.632812 95.453125 324.210938 C 95.492188 324.789062 95.5625 325.367188 95.65625 325.9375 C 95.753906 326.511719 95.878906 327.078125 96.03125 327.640625 C 96.183594 328.199219 96.363281 328.75 96.566406 329.292969 C 96.773438 329.835938 97.007812 330.371094 97.265625 330.890625 C 97.523438 331.410156 97.804688 331.917969 98.113281 332.410156 C 98.421875 332.902344 98.753906 333.378906 99.105469 333.839844 C 99.460938 334.296875 99.835938 334.742188 100.234375 335.164062 C 100.632812 335.585938 101.050781 335.992188 101.488281 336.371094 C 101.925781 336.753906 102.378906 337.117188 102.851562 337.453125 C 103.324219 337.792969 103.8125 338.105469 104.316406 338.394531 C 104.820312 338.6875 105.335938 338.953125 105.863281 339.191406 C 106.394531 339.429688 106.933594 339.644531 107.480469 339.832031 C 108.03125 340.019531 108.589844 340.179688 109.15625 340.308594 C 109.722656 340.441406 110.292969 340.546875 110.867188 340.625 C 111.445312 340.699219 112.023438 340.75 112.601562 340.769531 C 113.183594 340.789062 113.761719 340.78125 114.34375 340.742188 C 114.921875 340.707031 115.5 340.640625 116.074219 340.546875 C 116.644531 340.453125 117.214844 340.332031 117.773438 340.183594 C 118.335938 340.035156 118.890625 339.859375 119.433594 339.65625 C 119.976562 339.453125 120.511719 339.222656 121.03125 338.96875 C 121.554688 338.714844 122.0625 338.433594 122.558594 338.128906 C 123.050781 337.824219 123.53125 337.496094 123.992188 337.144531 C 124.453125 336.792969 124.898438 336.417969 125.324219 336.023438 C 125.75 335.628906 126.15625 335.210938 126.539062 334.777344 C 126.925781 334.34375 127.289062 333.890625 127.628906 333.417969 C 127.96875 332.949219 128.285156 332.460938 128.578125 331.960938 L 165.003906 268.867188 C 165.644531 268.902344 166.292969 268.921875 166.945312 268.921875 C 167.597656 268.921875 168.246094 268.902344 168.886719 268.867188 L 205.3125 331.957031 C 205.601562 332.464844 205.917969 332.953125 206.257812 333.425781 C 206.597656 333.902344 206.957031 334.359375 207.339844 334.796875 C 207.726562 335.234375 208.128906 335.652344 208.554688 336.050781 C 208.980469 336.449219 209.425781 336.828125 209.886719 337.183594 C 210.347656 337.539062 210.828125 337.867188 211.324219 338.175781 C 211.816406 338.484375 212.328125 338.769531 212.847656 339.027344 C 213.371094 339.285156 213.90625 339.515625 214.453125 339.722656 C 214.996094 339.925781 215.550781 340.105469 216.113281 340.257812 C 216.675781 340.40625 217.246094 340.53125 217.820312 340.625 C 218.398438 340.71875 218.976562 340.785156 219.558594 340.824219 C 220.136719 340.863281 220.71875 340.875 221.304688 340.855469 C 221.886719 340.835938 222.464844 340.789062 223.042969 340.710938 C 223.621094 340.636719 224.195312 340.53125 224.761719 340.398438 C 225.332031 340.265625 225.890625 340.109375 226.441406 339.921875 C 226.996094 339.734375 227.535156 339.519531 228.066406 339.277344 C 228.597656 339.039062 229.117188 338.773438 229.621094 338.480469 C 230.125 338.1875 230.613281 337.875 231.089844 337.535156 C 231.5625 337.195312 232.019531 336.832031 232.457031 336.449219 C 232.894531 336.0625 233.3125 335.660156 233.710938 335.234375 C 234.109375 334.808594 234.488281 334.363281 234.84375 333.902344 C 235.195312 333.4375 235.527344 332.960938 235.835938 332.464844 C 236.144531 331.96875 236.425781 331.460938 236.683594 330.9375 C 236.941406 330.414062 237.171875 329.882812 237.378906 329.335938 C 237.582031 328.789062 237.761719 328.234375 237.914062 327.671875 C 238.0625 327.109375 238.1875 326.539062 238.28125 325.964844 C 238.375 325.390625 238.441406 324.8125 238.480469 324.230469 C 238.519531 323.648438 238.527344 323.066406 238.507812 322.484375 C 238.488281 321.902344 238.441406 321.320312 238.363281 320.742188 C 238.289062 320.164062 238.183594 319.59375 238.050781 319.023438 C 237.917969 318.457031 237.757812 317.898438 237.570312 317.34375 C 237.382812 316.792969 237.171875 316.253906 236.929688 315.722656 C 236.6875 315.191406 236.421875 314.671875 236.128906 314.167969 L 199.085938 250.015625 C 201.449219 245.789062 202.914062 241.273438 203.480469 236.464844 Z M 248.597656 145.554688 L 275.773438 138.277344 C 276.433594 138.074219 277.101562 138.042969 277.78125 138.175781 C 278.457031 138.3125 279.0625 138.597656 279.597656 139.035156 C 280.160156 139.441406 280.59375 139.957031 280.902344 140.582031 C 281.210938 141.207031 281.351562 141.863281 281.332031 142.558594 L 281.332031 206.679688 C 281.332031 207.019531 281.296875 207.355469 281.21875 207.6875 C 281.140625 208.019531 281.027344 208.335938 280.878906 208.640625 C 280.726562 208.945312 280.542969 209.230469 280.328125 209.496094 C 280.113281 209.757812 279.871094 209.992188 279.601562 210.199219 C 279.332031 210.40625 279.042969 210.582031 278.734375 210.722656 C 278.425781 210.863281 278.105469 210.96875 277.773438 211.035156 C 277.4375 211.105469 277.101562 211.132812 276.761719 211.125 C 276.421875 211.113281 276.089844 211.066406 275.757812 210.980469 L 248.597656 203.699219 Z M 166.347656 77.960938 C 166.347656 76.820312 166.402344 75.683594 166.515625 74.546875 C 166.625 73.414062 166.792969 72.285156 167.015625 71.167969 C 167.238281 70.046875 167.515625 68.941406 167.847656 67.851562 C 168.179688 66.757812 168.5625 65.6875 169 64.632812 C 169.433594 63.578125 169.921875 62.550781 170.460938 61.542969 C 170.996094 60.535156 171.582031 59.558594 172.21875 58.609375 C 172.851562 57.664062 173.53125 56.746094 174.253906 55.867188 C 174.976562 54.984375 175.742188 54.140625 176.550781 53.332031 C 177.355469 52.527344 178.199219 51.761719 179.082031 51.039062 C 179.964844 50.3125 180.878906 49.636719 181.828125 49 C 182.777344 48.367188 183.753906 47.78125 184.757812 47.242188 C 185.765625 46.707031 186.796875 46.21875 187.847656 45.78125 C 188.902344 45.347656 189.976562 44.960938 191.066406 44.632812 C 192.160156 44.300781 193.265625 44.023438 194.382812 43.800781 C 195.503906 43.578125 196.628906 43.410156 197.765625 43.300781 C 198.898438 43.1875 200.039062 43.132812 201.179688 43.132812 C 202.320312 43.132812 203.457031 43.1875 204.59375 43.296875 C 205.726562 43.410156 206.855469 43.578125 207.972656 43.800781 C 209.09375 44.023438 210.199219 44.300781 211.289062 44.628906 C 212.382812 44.960938 213.453125 45.347656 214.507812 45.78125 C 215.5625 46.21875 216.589844 46.707031 217.597656 47.242188 C 218.605469 47.78125 219.582031 48.367188 220.53125 49 C 221.476562 49.632812 222.394531 50.3125 223.273438 51.039062 C 224.15625 51.761719 225 52.527344 225.808594 53.332031 C 226.613281 54.140625 227.378906 54.984375 228.101562 55.867188 C 228.828125 56.746094 229.503906 57.664062 230.140625 58.609375 C 230.773438 59.558594 231.359375 60.535156 231.898438 61.542969 C 232.433594 62.546875 232.921875 63.578125 233.359375 64.632812 C 233.792969 65.6875 234.179688 66.757812 234.511719 67.851562 C 234.839844 68.941406 235.117188 70.046875 235.339844 71.167969 C 235.5625 72.285156 235.730469 73.414062 235.84375 74.546875 C 235.953125 75.683594 236.007812 76.820312 236.007812 77.960938 C 236.007812 79.101562 235.953125 80.242188 235.84375 81.375 C 235.730469 82.511719 235.5625 83.636719 235.339844 84.757812 C 235.117188 85.875 234.839844 86.980469 234.507812 88.074219 C 234.179688 89.164062 233.792969 90.238281 233.359375 91.289062 C 232.921875 92.34375 232.433594 93.375 231.898438 94.378906 C 231.359375 95.386719 230.773438 96.363281 230.140625 97.3125 C 229.503906 98.261719 228.828125 99.175781 228.101562 100.058594 C 227.378906 100.941406 226.613281 101.785156 225.808594 102.589844 C 225 103.398438 224.15625 104.164062 223.273438 104.886719 C 222.394531 105.609375 221.476562 106.289062 220.527344 106.921875 C 219.582031 107.554688 218.601562 108.140625 217.597656 108.679688 C 216.589844 109.21875 215.5625 109.703125 214.507812 110.140625 C 213.453125 110.578125 212.378906 110.960938 211.289062 111.292969 C 210.199219 111.625 209.09375 111.898438 207.972656 112.121094 C 206.855469 112.34375 205.726562 112.511719 204.59375 112.625 C 203.457031 112.734375 202.320312 112.792969 201.179688 112.792969 C 200.039062 112.789062 198.898438 112.734375 197.765625 112.621094 C 196.628906 112.507812 195.503906 112.339844 194.386719 112.117188 C 193.265625 111.894531 192.164062 111.617188 191.070312 111.285156 C 189.980469 110.953125 188.910156 110.566406 187.855469 110.128906 C 186.800781 109.691406 185.773438 109.207031 184.765625 108.667969 C 183.761719 108.128906 182.785156 107.542969 181.835938 106.910156 C 180.886719 106.277344 179.972656 105.597656 179.09375 104.875 C 178.210938 104.152344 177.367188 103.386719 176.558594 102.578125 C 175.753906 101.773438 174.988281 100.929688 174.265625 100.046875 C 173.542969 99.167969 172.863281 98.25 172.230469 97.304688 C 171.59375 96.355469 171.007812 95.378906 170.472656 94.375 C 169.933594 93.367188 169.445312 92.339844 169.007812 91.285156 C 168.570312 90.230469 168.1875 89.160156 167.855469 88.070312 C 167.523438 86.976562 167.246094 85.871094 167.023438 84.753906 C 166.800781 83.636719 166.632812 82.507812 166.519531 81.375 C 166.40625 80.238281 166.347656 79.101562 166.347656 77.960938 Z M 97.882812 88.597656 C 97.882812 87.808594 97.921875 87.015625 98 86.230469 C 98.078125 85.441406 98.195312 84.65625 98.347656 83.882812 C 98.503906 83.105469 98.695312 82.335938 98.925781 81.578125 C 99.15625 80.820312 99.421875 80.078125 99.726562 79.34375 C 100.03125 78.613281 100.367188 77.898438 100.742188 77.199219 C 101.117188 76.5 101.523438 75.824219 101.964844 75.164062 C 102.402344 74.507812 102.875 73.871094 103.378906 73.257812 C 103.878906 72.648438 104.410156 72.0625 104.972656 71.5 C 105.53125 70.941406 106.117188 70.410156 106.730469 69.90625 C 107.34375 69.40625 107.980469 68.933594 108.636719 68.496094 C 109.296875 68.054688 109.976562 67.648438 110.675781 67.277344 C 111.371094 66.902344 112.089844 66.566406 112.820312 66.261719 C 113.550781 65.960938 114.296875 65.691406 115.054688 65.464844 C 115.8125 65.234375 116.582031 65.042969 117.359375 64.886719 C 118.132812 64.734375 118.917969 64.617188 119.707031 64.539062 C 120.492188 64.460938 121.285156 64.425781 122.074219 64.425781 C 122.867188 64.425781 123.65625 64.464844 124.445312 64.542969 C 125.234375 64.621094 126.015625 64.734375 126.792969 64.890625 C 127.570312 65.046875 128.335938 65.238281 129.09375 65.46875 C 129.851562 65.699219 130.597656 65.964844 131.328125 66.269531 C 132.0625 66.570312 132.777344 66.910156 133.476562 67.285156 C 134.171875 67.65625 134.851562 68.066406 135.511719 68.503906 C 136.167969 68.945312 136.804688 69.417969 137.414062 69.917969 C 138.027344 70.421875 138.613281 70.953125 139.171875 71.515625 C 139.734375 72.074219 140.265625 72.660156 140.765625 73.273438 C 141.269531 73.886719 141.738281 74.519531 142.179688 75.179688 C 142.621094 75.839844 143.027344 76.515625 143.398438 77.214844 C 143.773438 77.914062 144.109375 78.628906 144.414062 79.363281 C 144.714844 80.09375 144.980469 80.839844 145.210938 81.597656 C 145.441406 82.355469 145.632812 83.121094 145.789062 83.898438 C 145.941406 84.675781 146.058594 85.457031 146.136719 86.246094 C 146.210938 87.035156 146.25 87.824219 146.25 88.617188 C 146.25 89.410156 146.210938 90.199219 146.132812 90.988281 C 146.054688 91.777344 145.9375 92.558594 145.785156 93.335938 C 145.628906 94.113281 145.4375 94.878906 145.207031 95.636719 C 144.976562 96.394531 144.710938 97.140625 144.40625 97.871094 C 144.101562 98.601562 143.765625 99.316406 143.390625 100.015625 C 143.015625 100.714844 142.609375 101.394531 142.171875 102.050781 C 141.730469 102.710938 141.257812 103.34375 140.753906 103.957031 C 140.253906 104.570312 139.722656 105.15625 139.160156 105.714844 C 138.601562 106.273438 138.015625 106.804688 137.402344 107.308594 C 136.789062 107.808594 136.152344 108.28125 135.496094 108.722656 C 134.835938 109.160156 134.15625 109.566406 133.460938 109.941406 C 132.761719 110.3125 132.046875 110.652344 131.3125 110.953125 C 130.582031 111.257812 129.835938 111.523438 129.078125 111.753906 C 128.320312 111.984375 127.554688 112.175781 126.777344 112.328125 C 126 112.484375 125.214844 112.597656 124.429688 112.675781 C 123.640625 112.753906 122.851562 112.792969 122.058594 112.792969 C 121.265625 112.792969 120.476562 112.75 119.6875 112.671875 C 118.898438 112.59375 118.117188 112.476562 117.339844 112.324219 C 116.566406 112.167969 115.796875 111.976562 115.039062 111.742188 C 114.28125 111.511719 113.539062 111.246094 112.804688 110.941406 C 112.074219 110.640625 111.359375 110.300781 110.660156 109.925781 C 109.964844 109.554688 109.285156 109.144531 108.628906 108.707031 C 107.96875 108.265625 107.335938 107.792969 106.722656 107.292969 C 106.109375 106.789062 105.523438 106.257812 104.964844 105.695312 C 104.40625 105.136719 103.875 104.550781 103.371094 103.9375 C 102.871094 103.328125 102.398438 102.691406 101.957031 102.03125 C 101.519531 101.375 101.113281 100.695312 100.738281 99.996094 C 100.367188 99.296875 100.027344 98.582031 99.726562 97.851562 C 99.421875 97.121094 99.15625 96.375 98.925781 95.617188 C 98.695312 94.859375 98.503906 94.09375 98.347656 93.316406 C 98.195312 92.539062 98.078125 91.757812 98 90.96875 C 97.921875 90.179688 97.882812 89.390625 97.882812 88.597656 Z M 121.058594 327.613281 C 120.753906 328.117188 120.402344 328.585938 120.003906 329.019531 C 119.605469 329.457031 119.171875 329.851562 118.699219 330.199219 C 118.222656 330.550781 117.722656 330.855469 117.1875 331.105469 C 116.65625 331.359375 116.105469 331.558594 115.53125 331.707031 C 114.960938 331.851562 114.382812 331.941406 113.792969 331.976562 C 113.203125 332.011719 112.617188 331.988281 112.035156 331.90625 C 111.449219 331.828125 110.878906 331.691406 110.320312 331.5 C 109.761719 331.3125 109.230469 331.066406 108.71875 330.773438 C 108.207031 330.480469 107.730469 330.140625 107.285156 329.75 C 106.839844 329.363281 106.4375 328.9375 106.074219 328.472656 C 105.710938 328.007812 105.398438 327.511719 105.132812 326.984375 C 104.867188 326.460938 104.652344 325.914062 104.496094 325.34375 C 104.335938 324.777344 104.230469 324.199219 104.183594 323.613281 C 104.136719 323.023438 104.144531 322.4375 104.210938 321.851562 C 104.277344 321.265625 104.398438 320.691406 104.574219 320.128906 C 104.753906 319.566406 104.984375 319.027344 105.265625 318.511719 L 140.433594 257.605469 C 142.570312 259.832031 144.949219 261.761719 147.570312 263.390625 C 150.195312 265.019531 152.976562 266.296875 155.917969 267.226562 Z M 170.589844 259.992188 C 168.160156 260.316406 165.730469 260.316406 163.300781 259.992188 C 163.222656 259.976562 163.144531 259.96875 163.066406 259.960938 C 161.117188 259.6875 159.214844 259.214844 157.367188 258.542969 C 155.515625 257.871094 153.753906 257.011719 152.085938 255.972656 C 150.414062 254.929688 148.871094 253.726562 147.453125 252.363281 C 146.035156 250.996094 144.773438 249.5 143.671875 247.871094 C 143.558594 247.65625 143.429688 247.457031 143.28125 247.269531 C 141.148438 243.957031 139.777344 240.355469 139.167969 236.464844 L 194.71875 236.464844 C 194.117188 240.320312 192.765625 243.890625 190.664062 247.179688 C 190.460938 247.425781 190.289062 247.691406 190.144531 247.972656 C 189.039062 249.589844 187.78125 251.074219 186.367188 252.425781 C 184.953125 253.78125 183.414062 254.972656 181.75 256.003906 C 180.085938 257.035156 178.335938 257.886719 176.496094 258.550781 C 174.652344 259.21875 172.765625 259.6875 170.828125 259.960938 C 170.75 259.96875 170.667969 259.976562 170.589844 259.992188 Z M 228.609375 318.507812 C 228.910156 319.027344 229.152344 319.570312 229.347656 320.136719 C 229.539062 320.703125 229.671875 321.28125 229.75 321.875 C 229.828125 322.46875 229.847656 323.0625 229.808594 323.660156 C 229.769531 324.253906 229.675781 324.84375 229.519531 325.421875 C 229.363281 326 229.15625 326.554688 228.890625 327.09375 C 228.625 327.628906 228.3125 328.132812 227.949219 328.609375 C 227.582031 329.082031 227.175781 329.515625 226.726562 329.910156 C 226.277344 330.304688 225.792969 330.652344 225.273438 330.953125 C 224.757812 331.25 224.214844 331.496094 223.648438 331.6875 C 223.082031 331.882812 222.503906 332.015625 221.910156 332.09375 C 221.316406 332.171875 220.722656 332.191406 220.125 332.152344 C 219.527344 332.113281 218.941406 332.015625 218.363281 331.863281 C 217.785156 331.707031 217.226562 331.496094 216.691406 331.234375 C 216.15625 330.96875 215.648438 330.65625 215.175781 330.289062 C 214.699219 329.925781 214.265625 329.519531 213.871094 329.070312 C 213.476562 328.621094 213.128906 328.136719 212.832031 327.617188 L 177.972656 267.230469 C 180.914062 266.300781 183.691406 265.023438 186.3125 263.394531 C 188.933594 261.769531 191.308594 259.84375 193.445312 257.617188 Z M 110.382812 227.78125 C 109.84375 227.777344 109.308594 227.75 108.773438 227.699219 C 108.238281 227.644531 107.707031 227.566406 107.179688 227.460938 C 106.652344 227.355469 106.132812 227.222656 105.617188 227.066406 C 105.101562 226.910156 104.597656 226.726562 104.101562 226.519531 C 103.601562 226.316406 103.117188 226.085938 102.644531 225.832031 C 102.167969 225.578125 101.707031 225.300781 101.261719 225 C 100.816406 224.703125 100.382812 224.382812 99.96875 224.039062 C 99.550781 223.699219 99.152344 223.335938 98.773438 222.957031 C 98.394531 222.578125 98.03125 222.179688 97.691406 221.761719 C 97.351562 221.347656 97.03125 220.914062 96.730469 220.46875 C 96.433594 220.019531 96.15625 219.558594 95.902344 219.085938 C 95.648438 218.609375 95.421875 218.125 95.214844 217.628906 C 95.007812 217.132812 94.828125 216.625 94.671875 216.109375 C 94.515625 215.597656 94.382812 215.074219 94.277344 214.546875 C 94.175781 214.019531 94.09375 213.488281 94.042969 212.953125 C 93.988281 212.417969 93.960938 211.882812 93.960938 211.34375 L 93.960938 137.90625 C 93.960938 137.367188 93.988281 136.832031 94.042969 136.296875 C 94.09375 135.761719 94.175781 135.230469 94.28125 134.703125 C 94.386719 134.175781 94.515625 133.652344 94.671875 133.140625 C 94.828125 132.625 95.011719 132.121094 95.214844 131.625 C 95.421875 131.125 95.652344 130.640625 95.90625 130.167969 C 96.160156 129.691406 96.433594 129.234375 96.734375 128.785156 C 97.03125 128.339844 97.351562 127.90625 97.695312 127.492188 C 98.035156 127.074219 98.394531 126.679688 98.777344 126.296875 C 99.15625 125.917969 99.554688 125.558594 99.96875 125.214844 C 100.386719 124.875 100.816406 124.554688 101.261719 124.257812 C 101.710938 123.957031 102.171875 123.679688 102.644531 123.425781 C 103.121094 123.171875 103.605469 122.945312 104.101562 122.738281 C 104.597656 122.53125 105.105469 122.351562 105.617188 122.195312 C 106.132812 122.039062 106.652344 121.90625 107.179688 121.800781 C 107.707031 121.695312 108.238281 121.617188 108.773438 121.5625 C 109.308594 121.511719 109.84375 121.484375 110.382812 121.484375 L 223.488281 121.484375 C 224.027344 121.484375 224.5625 121.511719 225.097656 121.5625 C 225.632812 121.617188 226.164062 121.695312 226.691406 121.800781 C 227.21875 121.90625 227.742188 122.039062 228.253906 122.195312 C 228.769531 122.351562 229.273438 122.53125 229.773438 122.738281 C 230.269531 122.945312 230.753906 123.175781 231.226562 123.429688 C 231.703125 123.679688 232.164062 123.957031 232.609375 124.257812 C 233.054688 124.554688 233.488281 124.875 233.902344 125.214844 C 234.320312 125.558594 234.714844 125.917969 235.097656 126.296875 C 235.476562 126.679688 235.835938 127.078125 236.179688 127.492188 C 236.519531 127.90625 236.839844 128.339844 237.140625 128.785156 C 237.4375 129.234375 237.714844 129.695312 237.96875 130.167969 C 238.222656 130.640625 238.453125 131.125 238.65625 131.625 C 238.863281 132.121094 239.042969 132.625 239.199219 133.140625 C 239.359375 133.65625 239.488281 134.175781 239.59375 134.703125 C 239.699219 135.230469 239.777344 135.761719 239.832031 136.296875 C 239.886719 136.832031 239.910156 137.367188 239.914062 137.90625 L 239.914062 211.34375 C 239.910156 211.882812 239.886719 212.417969 239.832031 212.953125 C 239.777344 213.488281 239.699219 214.019531 239.59375 214.546875 C 239.488281 215.074219 239.359375 215.597656 239.203125 216.109375 C 239.046875 216.625 238.863281 217.132812 238.660156 217.628906 C 238.453125 218.125 238.222656 218.609375 237.96875 219.085938 C 237.714844 219.558594 237.441406 220.019531 237.140625 220.46875 C 236.84375 220.914062 236.523438 221.347656 236.179688 221.761719 C 235.839844 222.179688 235.480469 222.578125 235.101562 222.957031 C 234.71875 223.335938 234.320312 223.699219 233.90625 224.039062 C 233.492188 224.382812 233.058594 224.703125 232.613281 225 C 232.164062 225.300781 231.703125 225.578125 231.230469 225.832031 C 230.757812 226.085938 230.269531 226.316406 229.773438 226.519531 C 229.277344 226.726562 228.769531 226.910156 228.257812 227.066406 C 227.742188 227.222656 227.222656 227.355469 226.695312 227.460938 C 226.167969 227.566406 225.636719 227.644531 225.101562 227.699219 C 224.566406 227.75 224.027344 227.777344 223.488281 227.78125 Z M 175.332031 209.496094 C 175.332031 209.78125 175.304688 210.0625 175.25 210.339844 C 175.195312 210.621094 175.109375 210.890625 175.003906 211.15625 C 174.894531 211.417969 174.757812 211.667969 174.601562 211.90625 C 174.441406 212.144531 174.261719 212.363281 174.0625 212.5625 C 173.859375 212.765625 173.640625 212.945312 173.402344 213.105469 C 173.164062 213.261719 172.914062 213.394531 172.652344 213.503906 C 172.390625 213.613281 172.117188 213.695312 171.835938 213.753906 C 171.558594 213.808594 171.277344 213.835938 170.992188 213.835938 L 112.25 213.835938 C 111.964844 213.835938 111.683594 213.808594 111.40625 213.753906 C 111.125 213.695312 110.851562 213.613281 110.589844 213.503906 C 110.328125 213.394531 110.078125 213.261719 109.839844 213.105469 C 109.601562 212.945312 109.382812 212.765625 109.179688 212.5625 C 108.980469 212.363281 108.800781 212.144531 108.640625 211.90625 C 108.484375 211.667969 108.347656 211.417969 108.238281 211.15625 C 108.132812 210.890625 108.046875 210.621094 107.992188 210.339844 C 107.9375 210.0625 107.910156 209.78125 107.910156 209.496094 C 107.910156 209.210938 107.9375 208.925781 107.992188 208.648438 C 108.046875 208.367188 108.132812 208.097656 108.238281 207.832031 C 108.347656 207.570312 108.484375 207.320312 108.640625 207.082031 C 108.800781 206.84375 108.980469 206.625 109.179688 206.425781 C 109.382812 206.222656 109.601562 206.042969 109.839844 205.882812 C 110.078125 205.726562 110.328125 205.59375 110.589844 205.484375 C 110.851562 205.375 111.125 205.292969 111.40625 205.234375 C 111.683594 205.179688 111.964844 205.152344 112.25 205.152344 L 170.992188 205.152344 C 171.277344 205.152344 171.558594 205.179688 171.835938 205.234375 C 172.117188 205.292969 172.390625 205.375 172.652344 205.484375 C 172.914062 205.59375 173.164062 205.726562 173.402344 205.882812 C 173.640625 206.042969 173.859375 206.222656 174.058594 206.421875 C 174.261719 206.625 174.441406 206.84375 174.601562 207.082031 C 174.757812 207.320312 174.894531 207.570312 175 207.832031 C 175.109375 208.09375 175.191406 208.367188 175.25 208.644531 C 175.304688 208.925781 175.332031 209.207031 175.332031 209.492188 Z M 230.875 144.140625 C 230.875 143.175781 230.78125 142.214844 230.59375 141.269531 C 230.40625 140.320312 230.125 139.398438 229.757812 138.503906 C 229.386719 137.613281 228.933594 136.761719 228.398438 135.957031 C 227.863281 135.152344 227.25 134.410156 226.566406 133.726562 C 225.882812 133.042969 225.140625 132.429688 224.335938 131.894531 C 223.535156 131.355469 222.683594 130.902344 221.792969 130.53125 C 220.898438 130.160156 219.980469 129.878906 219.03125 129.691406 C 218.082031 129.503906 217.125 129.40625 216.15625 129.40625 C 215.191406 129.40625 214.234375 129.5 213.285156 129.6875 C 212.335938 129.875 211.414062 130.15625 210.523438 130.523438 C 209.628906 130.894531 208.78125 131.347656 207.976562 131.882812 C 207.171875 132.421875 206.425781 133.03125 205.742188 133.714844 C 205.058594 134.398438 204.449219 135.140625 203.910156 135.945312 C 203.371094 136.746094 202.917969 137.597656 202.546875 138.488281 C 202.175781 139.382812 201.898438 140.304688 201.707031 141.25 C 201.519531 142.199219 201.425781 143.15625 201.421875 144.125 C 201.421875 145.089844 201.515625 146.046875 201.703125 146.996094 C 201.894531 147.945312 202.171875 148.867188 202.542969 149.761719 C 202.910156 150.652344 203.363281 151.503906 203.902344 152.304688 C 204.4375 153.109375 205.046875 153.855469 205.730469 154.539062 C 206.414062 155.222656 207.15625 155.832031 207.960938 156.371094 C 208.765625 156.910156 209.613281 157.363281 210.507812 157.734375 C 211.398438 158.105469 212.320312 158.382812 213.269531 158.574219 C 214.214844 158.761719 215.175781 158.855469 216.140625 158.859375 C 217.109375 158.855469 218.066406 158.761719 219.011719 158.574219 C 219.960938 158.386719 220.882812 158.105469 221.773438 157.734375 C 222.667969 157.367188 223.515625 156.914062 224.320312 156.375 C 225.125 155.839844 225.867188 155.230469 226.550781 154.546875 C 227.234375 153.863281 227.847656 153.121094 228.382812 152.316406 C 228.921875 151.511719 229.375 150.664062 229.746094 149.773438 C 230.117188 148.878906 230.398438 147.960938 230.585938 147.011719 C 230.777344 146.066406 230.875 145.109375 230.875 144.140625 Z M 216.140625 150.171875 C 215.746094 150.171875 215.355469 150.132812 214.964844 150.050781 C 214.578125 149.972656 214.203125 149.859375 213.835938 149.707031 C 213.472656 149.554688 213.125 149.367188 212.796875 149.148438 C 212.46875 148.925781 212.164062 148.675781 211.882812 148.394531 C 211.605469 148.113281 211.355469 147.808594 211.136719 147.480469 C 210.917969 147.152344 210.734375 146.804688 210.582031 146.4375 C 210.429688 146.070312 210.316406 145.695312 210.242188 145.304688 C 210.164062 144.917969 210.128906 144.523438 210.128906 144.128906 C 210.128906 143.734375 210.167969 143.34375 210.246094 142.953125 C 210.324219 142.566406 210.4375 142.1875 210.589844 141.824219 C 210.742188 141.457031 210.929688 141.113281 211.148438 140.78125 C 211.371094 140.453125 211.621094 140.148438 211.898438 139.871094 C 212.179688 139.589844 212.484375 139.339844 212.816406 139.121094 C 213.144531 138.902344 213.492188 138.71875 213.855469 138.566406 C 214.222656 138.414062 214.601562 138.300781 214.988281 138.226562 C 215.375 138.148438 215.769531 138.109375 216.164062 138.109375 C 216.558594 138.109375 216.953125 138.148438 217.339844 138.226562 C 217.726562 138.304688 218.105469 138.417969 218.46875 138.570312 C 218.835938 138.722656 219.183594 138.910156 219.511719 139.128906 C 219.839844 139.347656 220.144531 139.597656 220.425781 139.878906 C 220.703125 140.160156 220.953125 140.464844 221.175781 140.792969 C 221.394531 141.121094 221.578125 141.46875 221.730469 141.835938 C 221.882812 142.199219 221.996094 142.578125 222.074219 142.964844 C 222.152344 143.351562 222.1875 143.746094 222.1875 144.140625 C 222.1875 144.539062 222.148438 144.929688 222.070312 145.320312 C 221.996094 145.707031 221.878906 146.085938 221.726562 146.453125 C 221.574219 146.816406 221.386719 147.164062 221.167969 147.496094 C 220.945312 147.824219 220.695312 148.128906 220.414062 148.410156 C 220.132812 148.691406 219.828125 148.941406 219.5 149.160156 C 219.167969 149.378906 218.820312 149.566406 218.453125 149.714844 C 218.085938 149.867188 217.707031 149.980469 217.320312 150.058594 C 216.929688 150.132812 216.539062 150.171875 216.140625 150.171875 Z M 176.367188 129.425781 C 175.402344 129.425781 174.445312 129.519531 173.5 129.710938 C 172.550781 129.898438 171.632812 130.179688 170.738281 130.550781 C 169.847656 130.921875 169 131.375 168.199219 131.914062 C 167.394531 132.449219 166.652344 133.0625 165.96875 133.746094 C 165.289062 134.429688 164.679688 135.171875 164.140625 135.976562 C 163.605469 136.78125 163.152344 137.628906 162.785156 138.523438 C 162.414062 139.414062 162.136719 140.335938 161.949219 141.28125 C 161.761719 142.230469 161.667969 143.1875 161.667969 144.152344 C 161.671875 145.121094 161.765625 146.078125 161.953125 147.023438 C 162.144531 147.972656 162.421875 148.890625 162.792969 149.78125 C 163.164062 150.675781 163.617188 151.523438 164.15625 152.324219 C 164.691406 153.128906 165.300781 153.871094 165.984375 154.554688 C 166.667969 155.238281 167.414062 155.847656 168.21875 156.382812 C 169.019531 156.917969 169.867188 157.371094 170.761719 157.742188 C 171.652344 158.109375 172.574219 158.390625 173.523438 158.578125 C 174.46875 158.765625 175.425781 158.859375 176.394531 158.859375 C 177.359375 158.859375 178.316406 158.761719 179.261719 158.574219 C 180.210938 158.386719 181.128906 158.105469 182.023438 157.734375 C 182.914062 157.367188 183.761719 156.914062 184.566406 156.375 C 185.371094 155.839844 186.113281 155.230469 186.796875 154.546875 C 187.476562 153.863281 188.089844 153.117188 188.625 152.316406 C 189.160156 151.511719 189.613281 150.664062 189.984375 149.773438 C 190.355469 148.878906 190.632812 147.957031 190.820312 147.011719 C 191.007812 146.0625 191.105469 145.105469 191.105469 144.140625 C 191.101562 143.175781 191.007812 142.21875 190.816406 141.269531 C 190.628906 140.320312 190.347656 139.402344 189.976562 138.507812 C 189.605469 137.613281 189.152344 136.765625 188.613281 135.964844 C 188.078125 135.160156 187.464844 134.417969 186.78125 133.734375 C 186.097656 133.050781 185.355469 132.441406 184.550781 131.902344 C 183.746094 131.367188 182.898438 130.914062 182.003906 130.542969 C 181.109375 130.175781 180.191406 129.894531 179.242188 129.707031 C 178.292969 129.519531 177.335938 129.425781 176.367188 129.425781 Z M 176.367188 150.171875 C 175.972656 150.171875 175.582031 150.132812 175.195312 150.050781 C 174.804688 149.972656 174.429688 149.859375 174.0625 149.707031 C 173.699219 149.554688 173.351562 149.367188 173.023438 149.148438 C 172.695312 148.925781 172.390625 148.675781 172.113281 148.394531 C 171.832031 148.113281 171.582031 147.808594 171.363281 147.480469 C 171.144531 147.152344 170.960938 146.804688 170.808594 146.4375 C 170.660156 146.070312 170.546875 145.695312 170.46875 145.304688 C 170.394531 144.917969 170.355469 144.523438 170.355469 144.128906 C 170.355469 143.734375 170.394531 143.34375 170.472656 142.953125 C 170.550781 142.566406 170.667969 142.1875 170.820312 141.824219 C 170.96875 141.457031 171.15625 141.113281 171.378906 140.78125 C 171.597656 140.453125 171.847656 140.148438 172.128906 139.871094 C 172.410156 139.589844 172.714844 139.339844 173.042969 139.121094 C 173.371094 138.902344 173.71875 138.71875 174.085938 138.566406 C 174.449219 138.414062 174.828125 138.300781 175.214844 138.226562 C 175.605469 138.148438 175.996094 138.109375 176.390625 138.109375 C 176.789062 138.109375 177.179688 138.148438 177.566406 138.226562 C 177.957031 138.304688 178.332031 138.417969 178.699219 138.570312 C 179.0625 138.722656 179.410156 138.910156 179.738281 139.128906 C 180.070312 139.347656 180.375 139.597656 180.652344 139.878906 C 180.933594 140.160156 181.183594 140.464844 181.402344 140.792969 C 181.621094 141.121094 181.808594 141.46875 181.957031 141.835938 C 182.109375 142.199219 182.222656 142.578125 182.300781 142.964844 C 182.378906 143.351562 182.417969 143.746094 182.417969 144.140625 C 182.417969 144.539062 182.378906 144.929688 182.300781 145.320312 C 182.222656 145.707031 182.105469 146.085938 181.953125 146.453125 C 181.800781 146.816406 181.617188 147.164062 181.394531 147.496094 C 181.175781 147.824219 180.921875 148.128906 180.644531 148.410156 C 180.363281 148.691406 180.054688 148.941406 179.726562 149.160156 C 179.394531 149.378906 179.046875 149.566406 178.679688 149.714844 C 178.316406 149.867188 177.9375 149.980469 177.546875 150.058594 C 177.160156 150.132812 176.765625 150.171875 176.367188 150.171875 Z M 201.179688 51.992188 C 200.328125 51.992188 199.480469 52.035156 198.632812 52.117188 C 197.789062 52.203125 196.949219 52.328125 196.113281 52.492188 C 195.277344 52.660156 194.457031 52.863281 193.640625 53.113281 C 192.828125 53.359375 192.027344 53.644531 191.242188 53.96875 C 190.457031 54.296875 189.6875 54.660156 188.9375 55.058594 C 188.1875 55.460938 187.460938 55.898438 186.753906 56.371094 C 186.046875 56.84375 185.363281 57.347656 184.707031 57.886719 C 184.046875 58.429688 183.417969 59 182.816406 59.601562 C 182.214844 60.203125 181.644531 60.832031 181.105469 61.488281 C 180.566406 62.144531 180.058594 62.828125 179.585938 63.535156 C 179.113281 64.242188 178.679688 64.972656 178.277344 65.722656 C 177.875 66.472656 177.511719 67.238281 177.1875 68.023438 C 176.863281 68.808594 176.574219 69.609375 176.328125 70.425781 C 176.082031 71.238281 175.875 72.0625 175.710938 72.894531 C 175.542969 73.730469 175.417969 74.570312 175.335938 75.417969 C 175.253906 76.261719 175.210938 77.113281 175.210938 77.960938 C 175.210938 78.8125 175.253906 79.660156 175.335938 80.507812 C 175.417969 81.355469 175.542969 82.195312 175.710938 83.027344 C 175.875 83.863281 176.082031 84.6875 176.328125 85.5 C 176.574219 86.316406 176.863281 87.113281 177.1875 87.898438 C 177.511719 88.6875 177.875 89.453125 178.277344 90.203125 C 178.679688 90.953125 179.113281 91.683594 179.585938 92.390625 C 180.058594 93.097656 180.566406 93.78125 181.105469 94.4375 C 181.644531 95.09375 182.214844 95.722656 182.816406 96.324219 C 183.417969 96.925781 184.046875 97.496094 184.707031 98.035156 C 185.363281 98.574219 186.046875 99.082031 186.753906 99.554688 C 187.460938 100.027344 188.1875 100.464844 188.9375 100.863281 C 189.6875 101.265625 190.457031 101.628906 191.242188 101.953125 C 192.027344 102.28125 192.828125 102.566406 193.640625 102.8125 C 194.457031 103.058594 195.28125 103.265625 196.113281 103.433594 C 196.949219 103.597656 197.789062 103.722656 198.636719 103.804688 C 199.480469 103.890625 200.328125 103.929688 201.179688 103.929688 C 202.03125 103.929688 202.878906 103.890625 203.726562 103.804688 C 204.570312 103.722656 205.414062 103.597656 206.246094 103.433594 C 207.082031 103.265625 207.90625 103.058594 208.71875 102.8125 C 209.53125 102.566406 210.332031 102.28125 211.117188 101.953125 C 211.902344 101.628906 212.671875 101.265625 213.421875 100.863281 C 214.171875 100.464844 214.902344 100.027344 215.609375 99.554688 C 216.316406 99.082031 216.996094 98.574219 217.65625 98.035156 C 218.3125 97.496094 218.941406 96.925781 219.542969 96.324219 C 220.144531 95.722656 220.714844 95.09375 221.253906 94.4375 C 221.792969 93.777344 222.300781 93.097656 222.773438 92.390625 C 223.246094 91.683594 223.683594 90.953125 224.082031 90.203125 C 224.484375 89.453125 224.847656 88.6875 225.171875 87.898438 C 225.5 87.113281 225.785156 86.3125 226.03125 85.5 C 226.277344 84.6875 226.484375 83.863281 226.652344 83.027344 C 226.816406 82.195312 226.941406 81.355469 227.023438 80.507812 C 227.109375 79.660156 227.148438 78.8125 227.148438 77.960938 C 227.148438 77.113281 227.105469 76.265625 227.023438 75.417969 C 226.9375 74.570312 226.8125 73.730469 226.644531 72.898438 C 226.480469 72.0625 226.273438 71.238281 226.023438 70.425781 C 225.777344 69.613281 225.492188 68.8125 225.164062 68.027344 C 224.839844 67.242188 224.476562 66.476562 224.074219 65.726562 C 223.671875 64.976562 223.234375 64.246094 222.761719 63.539062 C 222.289062 62.835938 221.785156 62.152344 221.246094 61.496094 C 220.707031 60.835938 220.136719 60.207031 219.535156 59.605469 C 218.933594 59.007812 218.304688 58.4375 217.644531 57.894531 C 216.988281 57.355469 216.308594 56.851562 215.601562 56.378906 C 214.894531 55.90625 214.164062 55.46875 213.414062 55.066406 C 212.664062 54.667969 211.898438 54.304688 211.113281 53.976562 C 210.328125 53.652344 209.527344 53.363281 208.714844 53.117188 C 207.898438 52.871094 207.078125 52.664062 206.242188 52.496094 C 205.410156 52.332031 204.570312 52.203125 203.722656 52.121094 C 202.875 52.035156 202.027344 51.996094 201.179688 51.992188 Z M 201.179688 95.246094 C 200.613281 95.246094 200.050781 95.21875 199.484375 95.160156 C 198.921875 95.105469 198.363281 95.023438 197.808594 94.914062 C 197.253906 94.800781 196.703125 94.664062 196.164062 94.5 C 195.621094 94.335938 195.089844 94.144531 194.566406 93.929688 C 194.042969 93.710938 193.53125 93.472656 193.03125 93.203125 C 192.535156 92.9375 192.046875 92.648438 191.578125 92.332031 C 191.105469 92.015625 190.652344 91.679688 190.214844 91.320312 C 189.777344 90.960938 189.359375 90.582031 188.960938 90.183594 C 188.558594 89.78125 188.179688 89.363281 187.820312 88.925781 C 187.460938 88.488281 187.125 88.035156 186.808594 87.5625 C 186.496094 87.09375 186.203125 86.609375 185.9375 86.109375 C 185.671875 85.609375 185.429688 85.097656 185.210938 84.574219 C 184.996094 84.050781 184.804688 83.519531 184.640625 82.980469 C 184.476562 82.4375 184.339844 81.886719 184.230469 81.332031 C 184.117188 80.777344 184.035156 80.21875 183.980469 79.65625 C 183.925781 79.09375 183.898438 78.527344 183.898438 77.960938 C 183.898438 77.394531 183.925781 76.832031 183.980469 76.269531 C 184.035156 75.703125 184.117188 75.144531 184.230469 74.589844 C 184.339844 74.035156 184.476562 73.488281 184.640625 72.945312 C 184.804688 72.402344 184.996094 71.871094 185.214844 71.347656 C 185.429688 70.824219 185.671875 70.3125 185.9375 69.816406 C 186.203125 69.316406 186.496094 68.832031 186.808594 68.359375 C 187.125 67.890625 187.460938 67.433594 187.820312 66.996094 C 188.179688 66.558594 188.558594 66.140625 188.960938 65.742188 C 189.359375 65.339844 189.777344 64.960938 190.214844 64.601562 C 190.652344 64.242188 191.109375 63.90625 191.578125 63.59375 C 192.050781 63.277344 192.535156 62.988281 193.035156 62.71875 C 193.53125 62.453125 194.042969 62.210938 194.566406 61.996094 C 195.089844 61.777344 195.621094 61.585938 196.164062 61.421875 C 196.703125 61.257812 197.253906 61.121094 197.808594 61.011719 C 198.363281 60.902344 198.921875 60.816406 199.484375 60.761719 C 200.050781 60.707031 200.613281 60.679688 201.179688 60.679688 C 201.746094 60.679688 202.3125 60.707031 202.875 60.761719 C 203.4375 60.816406 203.996094 60.902344 204.550781 61.011719 C 205.105469 61.121094 205.65625 61.257812 206.199219 61.421875 C 206.738281 61.589844 207.269531 61.777344 207.792969 61.996094 C 208.316406 62.210938 208.828125 62.453125 209.328125 62.71875 C 209.828125 62.988281 210.3125 63.277344 210.78125 63.59375 C 211.253906 63.90625 211.707031 64.242188 212.144531 64.601562 C 212.582031 64.960938 213 65.339844 213.402344 65.742188 C 213.800781 66.140625 214.179688 66.5625 214.539062 67 C 214.898438 67.4375 215.234375 67.890625 215.550781 68.359375 C 215.867188 68.832031 216.15625 69.316406 216.421875 69.816406 C 216.691406 70.3125 216.929688 70.824219 217.148438 71.347656 C 217.363281 71.871094 217.554688 72.402344 217.71875 72.945312 C 217.882812 73.488281 218.019531 74.035156 218.132812 74.589844 C 218.242188 75.144531 218.324219 75.703125 218.378906 76.269531 C 218.4375 76.832031 218.464844 77.394531 218.464844 77.960938 C 218.460938 78.527344 218.433594 79.09375 218.378906 79.65625 C 218.320312 80.21875 218.238281 80.777344 218.128906 81.332031 C 218.015625 81.886719 217.878906 82.4375 217.714844 82.976562 C 217.550781 83.519531 217.359375 84.050781 217.140625 84.574219 C 216.925781 85.097656 216.683594 85.605469 216.414062 86.105469 C 216.148438 86.605469 215.859375 87.089844 215.542969 87.558594 C 215.230469 88.03125 214.890625 88.484375 214.53125 88.921875 C 214.171875 89.359375 213.792969 89.777344 213.394531 90.175781 C 212.992188 90.578125 212.574219 90.957031 212.136719 91.316406 C 211.699219 91.675781 211.246094 92.011719 210.777344 92.328125 C 210.304688 92.640625 209.820312 92.929688 209.320312 93.199219 C 208.824219 93.464844 208.3125 93.707031 207.789062 93.925781 C 207.265625 94.140625 206.734375 94.332031 206.191406 94.496094 C 205.652344 94.660156 205.101562 94.796875 204.546875 94.910156 C 203.992188 95.019531 203.433594 95.105469 202.871094 95.160156 C 202.308594 95.214844 201.742188 95.246094 201.179688 95.246094 Z M 122.058594 103.316406 C 123.023438 103.316406 123.980469 103.222656 124.929688 103.03125 C 125.875 102.84375 126.796875 102.566406 127.6875 102.195312 C 128.582031 101.824219 129.429688 101.371094 130.234375 100.835938 C 131.035156 100.296875 131.78125 99.6875 132.464844 99.003906 C 133.148438 98.320312 133.757812 97.578125 134.292969 96.773438 C 134.832031 95.972656 135.285156 95.125 135.652344 94.230469 C 136.023438 93.339844 136.300781 92.417969 136.492188 91.46875 C 136.679688 90.523438 136.773438 89.566406 136.773438 88.597656 C 136.773438 87.632812 136.679688 86.675781 136.492188 85.730469 C 136.300781 84.78125 136.023438 83.859375 135.652344 82.96875 C 135.285156 82.074219 134.832031 81.226562 134.292969 80.421875 C 133.757812 79.621094 133.148438 78.875 132.464844 78.195312 C 131.78125 77.511719 131.035156 76.898438 130.234375 76.363281 C 129.429688 75.828125 128.582031 75.375 127.6875 75.003906 C 126.796875 74.632812 125.875 74.355469 124.929688 74.167969 C 123.980469 73.976562 123.023438 73.882812 122.058594 73.882812 C 121.089844 73.882812 120.132812 73.976562 119.1875 74.167969 C 118.238281 74.355469 117.320312 74.632812 116.425781 75.003906 C 115.53125 75.375 114.683594 75.828125 113.882812 76.363281 C 113.078125 76.898438 112.335938 77.511719 111.652344 78.195312 C 110.96875 78.875 110.359375 79.621094 109.820312 80.421875 C 109.285156 81.226562 108.832031 82.074219 108.460938 82.96875 C 108.089844 83.859375 107.8125 84.78125 107.625 85.726562 C 107.433594 86.675781 107.339844 87.632812 107.339844 88.597656 C 107.34375 89.566406 107.4375 90.519531 107.628906 91.46875 C 107.816406 92.414062 108.097656 93.335938 108.46875 94.226562 C 108.839844 95.117188 109.292969 95.964844 109.828125 96.769531 C 110.367188 97.570312 110.976562 98.316406 111.660156 99 C 112.339844 99.679688 113.085938 100.289062 113.886719 100.828125 C 114.691406 101.363281 115.539062 101.820312 116.429688 102.1875 C 117.320312 102.558594 118.242188 102.839844 119.1875 103.027344 C 120.136719 103.21875 121.09375 103.3125 122.058594 103.316406 Z M 122.058594 82.570312 C 122.453125 82.570312 122.847656 82.609375 123.234375 82.683594 C 123.621094 82.761719 124 82.878906 124.367188 83.027344 C 124.730469 83.179688 125.078125 83.367188 125.40625 83.585938 C 125.738281 83.804688 126.042969 84.054688 126.320312 84.335938 C 126.601562 84.617188 126.851562 84.921875 127.070312 85.25 C 127.292969 85.578125 127.476562 85.925781 127.628906 86.292969 C 127.78125 86.660156 127.894531 87.035156 127.972656 87.421875 C 128.050781 87.8125 128.085938 88.203125 128.085938 88.601562 C 128.085938 88.996094 128.046875 89.386719 127.972656 89.777344 C 127.894531 90.164062 127.78125 90.542969 127.628906 90.90625 C 127.476562 91.273438 127.289062 91.621094 127.070312 91.949219 C 126.851562 92.28125 126.601562 92.585938 126.320312 92.863281 C 126.039062 93.144531 125.734375 93.394531 125.40625 93.613281 C 125.078125 93.832031 124.730469 94.019531 124.363281 94.171875 C 124 94.324219 123.621094 94.4375 123.234375 94.515625 C 122.84375 94.589844 122.453125 94.628906 122.058594 94.628906 C 121.660156 94.628906 121.269531 94.589844 120.878906 94.515625 C 120.492188 94.4375 120.113281 94.320312 119.75 94.171875 C 119.382812 94.019531 119.035156 93.832031 118.707031 93.613281 C 118.378906 93.394531 118.074219 93.144531 117.792969 92.863281 C 117.511719 92.582031 117.261719 92.277344 117.042969 91.949219 C 116.824219 91.621094 116.636719 91.273438 116.484375 90.90625 C 116.335938 90.539062 116.21875 90.164062 116.144531 89.777344 C 116.066406 89.386719 116.027344 88.996094 116.027344 88.597656 C 116.027344 88.203125 116.066406 87.8125 116.144531 87.421875 C 116.222656 87.035156 116.339844 86.660156 116.492188 86.292969 C 116.640625 85.929688 116.828125 85.582031 117.046875 85.253906 C 117.269531 84.921875 117.519531 84.621094 117.796875 84.339844 C 118.078125 84.058594 118.382812 83.808594 118.710938 83.589844 C 119.039062 83.371094 119.386719 83.183594 119.753906 83.03125 C 120.117188 82.878906 120.496094 82.765625 120.882812 82.6875 C 121.269531 82.609375 121.664062 82.570312 122.058594 82.570312 Z M 122.058594 82.570312 " fill-opacity="1" fill-rule="nonzero"/></g></svg>