<svg xmlns="http://www.w3.org/2000/svg" xmlns:xlink="http://www.w3.org/1999/xlink" width="500" zoomAndPan="magnify" viewBox="0 0 375 374.999991" height="500" preserveAspectRatio="xMidYMid meet" version="1.0"><defs><clipPath id="2488ea5865"><path d="M 24.621094 24 L 237 24 L 237 286 L 24.621094 286 Z M 24.621094 24 " clip-rule="nonzero"/></clipPath><clipPath id="80a04d9ed8"><path d="M 215 115 L 350 115 L 350 351.347656 L 215 351.347656 Z M 215 115 " clip-rule="nonzero"/></clipPath></defs><g clip-path="url(#2488ea5865)"><path fill="#100f0d" d="M 96.105469 108.574219 C 96.105469 104.273438 96.105469 99.972656 96.105469 95.671875 C 96.105469 90.382812 96.105469 85.097656 96.105469 79.8125 C 109.820312 75.839844 123.53125 71.867188 137.246094 67.894531 C 162.359375 60.621094 187.472656 53.34375 212.585938 46.070312 C 214.925781 45.394531 217.261719 44.71875 219.597656 44.042969 C 219.597656 53.355469 219.597656 62.675781 219.597656 71.988281 C 178.316406 83.785156 137.351562 96.648438 96.105469 108.574219 Z M 225.652344 25.097656 C 209.921875 29.65625 194.191406 34.210938 178.457031 38.769531 C 153.34375 46.042969 128.230469 53.320312 103.117188 60.59375 C 97.300781 62.277344 91.484375 63.964844 85.664062 65.644531 C 82.175781 66.660156 79.609375 69.945312 79.609375 73.605469 C 79.609375 93.726562 79.609375 113.847656 79.609375 133.964844 C 79.609375 162.394531 79.609375 190.820312 79.609375 219.25 C 74.082031 215.746094 67.53125 213.710938 60.5 213.710938 C 40.734375 213.710938 24.710938 229.746094 24.710938 249.523438 C 24.710938 269.304688 40.734375 285.335938 60.5 285.335938 C 78.8125 285.335938 93.898438 271.578125 96.023438 253.832031 C 96.039062 253.726562 96.054688 253.625 96.066406 253.523438 C 96.210938 252.210938 96.292969 250.875 96.292969 249.523438 C 96.292969 248.289062 96.230469 247.070312 96.105469 245.871094 C 96.105469 228.007812 96.105469 210.140625 96.105469 192.273438 C 96.105469 170.089844 96.105469 147.90625 96.105469 125.722656 C 96.394531 125.671875 96.6875 125.601562 96.988281 125.515625 C 137.953125 113.726562 178.628906 100.953125 219.597656 89.164062 C 219.597656 90.585938 219.597656 92 219.597656 93.417969 C 219.597656 122.832031 219.597656 152.246094 219.597656 181.660156 C 214.023438 178.074219 207.398438 175.988281 200.28125 175.988281 C 180.515625 175.988281 164.492188 192.023438 164.492188 211.804688 C 164.492188 231.582031 180.515625 247.613281 200.28125 247.613281 C 219.617188 247.613281 235.359375 232.273438 236.039062 213.09375 C 236.074219 212.769531 236.097656 212.433594 236.097656 212.085938 C 236.097656 191.964844 236.097656 171.84375 236.097656 151.722656 C 236.097656 119.523438 236.097656 87.320312 236.097656 55.121094 C 236.097656 47.765625 236.097656 40.414062 236.097656 33.058594 C 236.097656 27.753906 230.816406 23.605469 225.652344 25.097656 " fill-opacity="1" fill-rule="nonzero"/></g><g clip-path="url(#80a04d9ed8)"><path fill="#100f0d" d="M 286.742188 125.042969 C 277.070312 118.523438 270.242188 115.210938 270.242188 115.210938 C 270.242188 125.226562 270.242188 146.796875 270.242188 171.515625 C 270.242188 214.796875 270.242188 267.738281 270.242188 285.277344 C 264.183594 281.441406 256.894531 279.363281 249.09375 279.796875 C 230.792969 280.820312 216.0625 295.847656 215.375 314.179688 C 214.605469 334.582031 230.914062 351.367188 251.136719 351.367188 C 269.445312 351.367188 284.535156 337.609375 286.660156 319.859375 C 286.671875 319.757812 286.691406 319.660156 286.699219 319.554688 C 286.847656 318.242188 286.925781 316.910156 286.925781 315.554688 C 286.925781 314.324219 286.863281 313.105469 286.742188 311.902344 C 286.742188 294.035156 286.742188 276.171875 286.742188 258.304688 C 286.742188 247.035156 286.742188 203.597656 286.742188 167.027344 C 314.867188 165.703125 333.941406 193.152344 343.628906 211.871094 C 345.230469 214.96875 349.960938 213.359375 349.308594 209.933594 C 341.242188 167.613281 307.449219 138.984375 286.742188 125.042969 " fill-opacity="1" fill-rule="nonzero"/></g></svg>