<svg xmlns="http://www.w3.org/2000/svg" xmlns:xlink="http://www.w3.org/1999/xlink" width="500" zoomAndPan="magnify" viewBox="0 0 375 374.999991" height="500" preserveAspectRatio="xMidYMid meet" version="1.0"><defs><clipPath id="c6f3bace49"><path d="M 8.769531 32.492188 L 366.519531 32.492188 L 366.519531 271 L 8.769531 271 Z M 8.769531 32.492188 " clip-rule="nonzero"/></clipPath><clipPath id="0448aa0d76"><path d="M 110 306 L 266 306 L 266 342.242188 L 110 342.242188 Z M 110 306 " clip-rule="nonzero"/></clipPath><clipPath id="0caf7350d3"><path d="M 8.769531 211 L 366.519531 211 L 366.519531 224 L 8.769531 224 Z M 8.769531 211 " clip-rule="nonzero"/></clipPath></defs><g clip-path="url(#c6f3bace49)"><path fill="#000000" d="M 348.644531 270.714844 L 26.664062 270.714844 C 16.800781 270.714844 8.777344 262.707031 8.777344 252.859375 L 8.777344 50.464844 C 8.777344 40.617188 16.800781 32.605469 26.664062 32.605469 L 348.644531 32.605469 C 358.507812 32.605469 366.53125 40.617188 366.53125 50.464844 L 366.53125 252.859375 C 366.53125 262.703125 358.507812 270.714844 348.644531 270.714844 Z M 26.664062 44.511719 C 23.375 44.511719 20.703125 47.179688 20.703125 50.464844 L 20.703125 252.859375 C 20.703125 256.140625 23.375 258.808594 26.664062 258.808594 L 348.644531 258.808594 C 351.933594 258.808594 354.605469 256.140625 354.605469 252.859375 L 354.605469 50.464844 C 354.605469 47.179688 351.933594 44.511719 348.644531 44.511719 Z M 26.664062 44.511719 " fill-opacity="1" fill-rule="nonzero"/></g><path fill="#000000" d="M 205.542969 318.335938 L 169.765625 318.335938 C 166.472656 318.335938 163.804688 315.675781 163.804688 312.386719 L 163.804688 264.761719 C 163.804688 261.472656 166.472656 258.808594 169.765625 258.808594 L 205.542969 258.808594 C 208.839844 258.808594 211.503906 261.472656 211.503906 264.761719 L 211.503906 312.386719 C 211.503906 315.675781 208.839844 318.335938 205.542969 318.335938 Z M 175.730469 306.433594 L 199.578125 306.433594 L 199.578125 270.714844 L 175.730469 270.714844 Z M 175.730469 306.433594 " fill-opacity="1" fill-rule="nonzero"/><g clip-path="url(#0448aa0d76)"><path fill="#000000" d="M 247.28125 342.148438 L 128.027344 342.148438 C 118.164062 342.148438 110.140625 334.136719 110.140625 324.289062 C 110.140625 314.441406 118.164062 306.433594 128.027344 306.433594 L 247.28125 306.433594 C 257.144531 306.433594 265.167969 314.441406 265.167969 324.289062 C 265.167969 334.136719 257.144531 342.148438 247.28125 342.148438 Z M 128.027344 318.335938 C 124.738281 318.335938 122.066406 321.003906 122.066406 324.289062 C 122.066406 327.574219 124.738281 330.242188 128.027344 330.242188 L 247.28125 330.242188 C 250.570312 330.242188 253.242188 327.574219 253.242188 324.289062 C 253.242188 321.007812 250.570312 318.335938 247.28125 318.335938 Z M 128.027344 318.335938 " fill-opacity="1" fill-rule="nonzero"/></g><g clip-path="url(#0caf7350d3)"><path fill="#000000" d="M 360.570312 223.09375 L 14.738281 223.09375 C 11.445312 223.09375 8.777344 220.429688 8.777344 217.140625 C 8.777344 213.851562 11.445312 211.1875 14.738281 211.1875 L 360.570312 211.1875 C 363.867188 211.1875 366.53125 213.851562 366.53125 217.140625 C 366.53125 220.429688 363.867188 223.09375 360.570312 223.09375 Z M 360.570312 223.09375 " fill-opacity="1" fill-rule="nonzero"/></g><path fill="#000000" d="M 205.542969 246.90625 L 169.765625 246.90625 C 166.472656 246.90625 163.804688 244.242188 163.804688 240.953125 C 163.804688 237.660156 166.472656 235 169.765625 235 L 205.542969 235 C 208.839844 235 211.503906 237.660156 211.503906 240.953125 C 211.503906 244.242188 208.839844 246.90625 205.542969 246.90625 Z M 205.542969 246.90625 " fill-opacity="1" fill-rule="nonzero"/></svg>