<svg xmlns="http://www.w3.org/2000/svg" xmlns:xlink="http://www.w3.org/1999/xlink" width="500" zoomAndPan="magnify" viewBox="0 0 375 374.999991" height="500" preserveAspectRatio="xMidYMid meet" version="1.0"><defs><clipPath id="1d9405f444"><path d="M 71 31.144531 L 304 31.144531 L 304 343.894531 L 71 343.894531 Z M 71 31.144531 " clip-rule="nonzero"/></clipPath></defs><rect x="-37.5" width="450" fill="#ffffff" y="-37.499999" height="449.999989" fill-opacity="1"/><rect x="-37.5" width="450" fill="#ffffff" y="-37.499999" height="449.999989" fill-opacity="1"/><g clip-path="url(#1d9405f444)"><path fill="#000000" d="M 285.105469 96.96875 C 287.625 93.625 291.90625 88.511719 301.742188 73.140625 C 304.773438 68.402344 303.738281 61.847656 300.480469 57.136719 C 294.449219 48.414062 295.292969 48.816406 280.351562 38.089844 C 275.269531 34.441406 265.398438 30.449219 259.566406 31.246094 C 245.246094 33.195312 233.503906 59.445312 228.257812 60.832031 C 220.617188 62.851562 215.578125 73.246094 210.433594 82.746094 C 208.472656 86.367188 210.984375 88.792969 208.277344 91.667969 C 203.921875 96.296875 188.542969 117.445312 185 122.539062 C 76.367188 278.523438 90.675781 253.820312 74.179688 327.023438 C 73.632812 329.460938 70.734375 336.695312 72.003906 340.507812 C 74.175781 347.046875 80.179688 342.488281 85.921875 338.667969 C 180.949219 275.515625 122.527344 327.167969 230.605469 176.800781 C 230.695312 176.675781 250.109375 149.4375 250.863281 148.316406 C 262.53125 130.96875 263.0625 127.632812 266.792969 126.3125 C 269.683594 125.289062 271.03125 123.191406 276.054688 116.15625 C 283.367188 105.925781 287.226562 102.007812 285.105469 96.96875 Z M 242.246094 55.40625 C 255.921875 37.054688 258.109375 30.785156 281.796875 47.964844 C 287.953125 52.429688 295.238281 58.898438 296.453125 66.398438 C 297.035156 70.003906 295.738281 71.0625 288.765625 81.578125 C 287.550781 83.40625 284.078125 88.730469 282.597656 90.261719 C 280.773438 92.148438 269.179688 73.308594 241.226562 62.652344 C 237.25 61.136719 237.597656 61.648438 242.246094 55.40625 Z M 193.105469 121.859375 C 210.8125 96.019531 209.769531 99.902344 213.921875 94.175781 C 215.472656 92.035156 216.003906 92.996094 227.25 98.058594 C 227.195312 98.207031 166.15625 183.433594 153.472656 201.996094 C 110.765625 264.484375 113.808594 263.90625 106.90625 265.039062 C 104.832031 265.378906 99.34375 266.261719 96.351562 266.15625 C 103.746094 249.433594 152.957031 180.4375 193.105469 121.859375 Z M 232.003906 100.796875 C 236.25 103.84375 240.394531 106.804688 244.523438 109.792969 C 248.039062 112.339844 246.121094 110.875 198.523438 178.015625 C 125.929688 280.441406 135.808594 280.289062 115.839844 281.238281 C 114.417969 277.78125 114.546875 274.375 114.53125 270.941406 C 114.511719 267.488281 115.992188 264.871094 117.929688 262.152344 C 118.019531 262.027344 219.179688 110.644531 232.003906 100.796875 Z M 100.363281 320.925781 C 98.71875 318.824219 96.769531 315.335938 91.398438 312.179688 C 87.714844 310.015625 84.167969 311.152344 84.847656 308.140625 C 86.019531 302.9375 88.207031 295.699219 88.597656 294.324219 C 93.175781 278.128906 93.0625 273.46875 95.179688 273.242188 C 95.746094 273.179688 105.191406 272.167969 106.660156 272.292969 C 110.6875 290.449219 107.464844 289.445312 125.394531 286.296875 C 128.285156 285.789062 127.308594 285.253906 132.863281 299.910156 C 100.46875 321.074219 112.210938 314.757812 100.363281 320.925781 Z M 139.546875 295.335938 C 136.808594 291.144531 134.933594 286.921875 134.34375 282.128906 C 133.976562 279.148438 162.65625 237.742188 164.34375 235.257812 C 171.527344 224.675781 200.910156 181.140625 233.441406 135.855469 C 249.609375 113.34375 248.835938 114.480469 251.667969 115.148438 C 251.492188 116.101562 251.25 115.511719 259.335938 123.875 C 255.144531 130.035156 144.519531 292.089844 139.546875 295.335938 Z M 266.875 117.691406 C 263.148438 121.324219 266.914062 117.613281 242.464844 100.101562 C 234.429688 94.347656 225.789062 89.585938 216.558594 85.679688 C 217.550781 82.3125 218.722656 79.378906 220.839844 76.855469 C 223.964844 73.140625 226.578125 68.183594 231.675781 67.613281 C 239.355469 66.746094 261.519531 79.722656 276.027344 95.253906 C 277.914062 97.273438 279.046875 99.675781 277.550781 102.441406 C 274.582031 107.921875 271.398438 113.285156 266.875 117.691406 Z M 266.875 117.691406 " fill-opacity="1" fill-rule="nonzero"/></g></svg>